<svg width="852" height="334" viewBox="0 0 852 334" fill="none" xmlns="http://www.w3.org/2000/svg">
<g filter="url(#filter0_d_639_3414)">
<rect x="24" y="16" width="804" height="286" rx="8" fill="white" shape-rendering="crispEdges"/>
<path d="M53.1477 66V54.3636H60.7159V56.1307H55.2557V59.2898H60.3239V61.0568H55.2557V64.233H60.7614V66H53.1477ZM65.2869 66.1761C64.7339 66.1761 64.2358 66.0777 63.7926 65.8807C63.3532 65.6799 63.0047 65.3845 62.7472 64.9943C62.4934 64.6042 62.3665 64.1231 62.3665 63.5511C62.3665 63.0587 62.4574 62.6515 62.6392 62.3295C62.821 62.0076 63.0691 61.75 63.3835 61.5568C63.6979 61.3636 64.0521 61.2178 64.446 61.1193C64.8438 61.017 65.2547 60.9432 65.679 60.8977C66.1903 60.8447 66.6051 60.7973 66.9233 60.7557C67.2415 60.7102 67.4725 60.642 67.6165 60.5511C67.7642 60.4564 67.8381 60.3106 67.8381 60.1136V60.0795C67.8381 59.6515 67.7112 59.3201 67.4574 59.0852C67.2036 58.8504 66.8381 58.733 66.3608 58.733C65.857 58.733 65.4574 58.8428 65.1619 59.0625C64.8703 59.2822 64.6733 59.5417 64.571 59.8409L62.6506 59.5682C62.8021 59.0379 63.0521 58.5947 63.4006 58.2386C63.7491 57.8788 64.1752 57.6098 64.679 57.4318C65.1828 57.25 65.7396 57.1591 66.3494 57.1591C66.7699 57.1591 67.1884 57.2083 67.6051 57.3068C68.0218 57.4053 68.4025 57.5682 68.7472 57.7955C69.0919 58.0189 69.3684 58.3239 69.5767 58.7102C69.7888 59.0966 69.8949 59.5795 69.8949 60.1591V66H67.9176V64.8011H67.8494C67.7244 65.0436 67.5483 65.2708 67.321 65.483C67.0975 65.6913 66.8153 65.8598 66.4744 65.9886C66.1373 66.1136 65.7415 66.1761 65.2869 66.1761ZM65.821 64.6648C66.2339 64.6648 66.5919 64.5833 66.8949 64.4205C67.1979 64.2538 67.4309 64.0341 67.5938 63.7614C67.7604 63.4886 67.8438 63.1913 67.8438 62.8693V61.8409C67.7794 61.8939 67.6695 61.9432 67.5142 61.9886C67.3627 62.0341 67.1922 62.0739 67.0028 62.108C66.8134 62.142 66.6259 62.1723 66.4403 62.1989C66.2547 62.2254 66.0938 62.2481 65.9574 62.267C65.6506 62.3087 65.3759 62.3769 65.1335 62.4716C64.8911 62.5663 64.6998 62.6989 64.5597 62.8693C64.4195 63.036 64.3494 63.2519 64.3494 63.517C64.3494 63.8958 64.4877 64.1818 64.7642 64.375C65.0407 64.5682 65.393 64.6648 65.821 64.6648ZM71.9631 66V57.2727H73.9574V58.7273H74.0483C74.2074 58.2235 74.4801 57.8352 74.8665 57.5625C75.2566 57.286 75.7017 57.1477 76.2017 57.1477C76.3153 57.1477 76.4422 57.1534 76.5824 57.1648C76.7263 57.1723 76.8456 57.1856 76.9403 57.2045V59.0966C76.8532 59.0663 76.715 59.0398 76.5256 59.017C76.34 58.9905 76.16 58.9773 75.9858 58.9773C75.6108 58.9773 75.2737 59.0587 74.9744 59.2216C74.679 59.3807 74.446 59.6023 74.2756 59.8864C74.1051 60.1705 74.0199 60.4981 74.0199 60.8693V66H71.9631ZM80.3636 60.8864V66H78.3068V57.2727H80.2727V58.7557H80.375C80.5758 58.267 80.8958 57.8788 81.3352 57.5909C81.7784 57.303 82.3258 57.1591 82.9773 57.1591C83.5795 57.1591 84.1042 57.2879 84.5511 57.5455C85.0019 57.803 85.3504 58.1761 85.5966 58.6648C85.8466 59.1534 85.9697 59.7462 85.9659 60.4432V66H83.9091V60.7614C83.9091 60.178 83.7576 59.7216 83.4545 59.392C83.1553 59.0625 82.7405 58.8977 82.2102 58.8977C81.8504 58.8977 81.5303 58.9773 81.25 59.1364C80.9735 59.2917 80.7557 59.517 80.5966 59.8125C80.4413 60.108 80.3636 60.4659 80.3636 60.8864ZM88.0568 66V57.2727H90.1136V66H88.0568ZM89.0909 56.0341C88.7652 56.0341 88.4848 55.9261 88.25 55.7102C88.0152 55.4905 87.8977 55.2273 87.8977 54.9205C87.8977 54.6098 88.0152 54.3466 88.25 54.1307C88.4848 53.911 88.7652 53.8011 89.0909 53.8011C89.4205 53.8011 89.7008 53.911 89.9318 54.1307C90.1667 54.3466 90.2841 54.6098 90.2841 54.9205C90.2841 55.2273 90.1667 55.4905 89.9318 55.7102C89.7008 55.9261 89.4205 56.0341 89.0909 56.0341ZM94.2855 60.8864V66H92.2287V57.2727H94.1946V58.7557H94.2969C94.4976 58.267 94.8177 57.8788 95.2571 57.5909C95.7003 57.303 96.2476 57.1591 96.8991 57.1591C97.5014 57.1591 98.026 57.2879 98.473 57.5455C98.9238 57.803 99.2723 58.1761 99.5185 58.6648C99.7685 59.1534 99.8916 59.7462 99.8878 60.4432V66H97.831V60.7614C97.831 60.178 97.6795 59.7216 97.3764 59.392C97.0772 59.0625 96.6624 58.8977 96.1321 58.8977C95.7723 58.8977 95.4522 58.9773 95.1719 59.1364C94.8954 59.2917 94.6776 59.517 94.5185 59.8125C94.3632 60.108 94.2855 60.4659 94.2855 60.8864ZM105.774 69.4545C105.036 69.4545 104.401 69.3542 103.871 69.1534C103.34 68.9564 102.914 68.6913 102.592 68.358C102.27 68.0246 102.047 67.6553 101.922 67.25L103.774 66.8011C103.857 66.9716 103.979 67.1402 104.138 67.3068C104.297 67.4773 104.511 67.6174 104.78 67.7273C105.053 67.8409 105.395 67.8977 105.808 67.8977C106.392 67.8977 106.875 67.7557 107.257 67.4716C107.64 67.1913 107.831 66.7292 107.831 66.0852V64.4318H107.729C107.623 64.6439 107.467 64.8617 107.263 65.0852C107.062 65.3087 106.795 65.4962 106.462 65.6477C106.132 65.7992 105.717 65.875 105.217 65.875C104.547 65.875 103.939 65.7178 103.393 65.4034C102.852 65.0852 102.42 64.6117 102.098 63.983C101.78 63.3504 101.621 62.5587 101.621 61.608C101.621 60.6496 101.78 59.8409 102.098 59.1818C102.42 58.5189 102.854 58.017 103.399 57.6761C103.945 57.3314 104.553 57.1591 105.223 57.1591C105.734 57.1591 106.155 57.2462 106.484 57.4205C106.818 57.5909 107.083 57.7973 107.28 58.0398C107.477 58.2784 107.626 58.5038 107.729 58.7159H107.842V57.2727H109.871V66.142C109.871 66.8883 109.693 67.5057 109.337 67.9943C108.981 68.483 108.494 68.8485 107.876 69.0909C107.259 69.3333 106.558 69.4545 105.774 69.4545ZM105.791 64.2614C106.227 64.2614 106.598 64.1553 106.905 63.9432C107.212 63.7311 107.445 63.4261 107.604 63.0284C107.763 62.6307 107.842 62.1534 107.842 61.5966C107.842 61.0473 107.763 60.5663 107.604 60.1534C107.448 59.7405 107.217 59.4205 106.911 59.1932C106.607 58.9621 106.234 58.8466 105.791 58.8466C105.333 58.8466 104.95 58.9659 104.643 59.2045C104.337 59.4432 104.106 59.7708 103.95 60.1875C103.795 60.6004 103.717 61.0701 103.717 61.5966C103.717 62.1307 103.795 62.5985 103.95 63C104.109 63.3977 104.342 63.7083 104.649 63.9318C104.96 64.1515 105.34 64.2614 105.791 64.2614ZM122.362 57.5625C122.309 57.0663 122.086 56.6799 121.692 56.4034C121.302 56.1269 120.794 55.9886 120.169 55.9886C119.73 55.9886 119.353 56.0549 119.038 56.1875C118.724 56.3201 118.483 56.5 118.317 56.7273C118.15 56.9545 118.065 57.214 118.061 57.5057C118.061 57.7481 118.116 57.9583 118.226 58.1364C118.339 58.3144 118.493 58.4659 118.686 58.5909C118.879 58.7121 119.093 58.8144 119.328 58.8977C119.563 58.9811 119.8 59.0511 120.038 59.108L121.129 59.3807C121.569 59.483 121.991 59.6212 122.396 59.7955C122.805 59.9697 123.171 60.1894 123.493 60.4545C123.819 60.7197 124.076 61.0398 124.266 61.4148C124.455 61.7898 124.55 62.2292 124.55 62.733C124.55 63.4148 124.375 64.0152 124.027 64.5341C123.679 65.0492 123.175 65.4527 122.516 65.7443C121.86 66.0322 121.067 66.1761 120.135 66.1761C119.23 66.1761 118.444 66.036 117.777 65.7557C117.114 65.4754 116.595 65.0663 116.22 64.5284C115.849 63.9905 115.648 63.3352 115.618 62.5625H117.692C117.722 62.9678 117.847 63.3049 118.067 63.5739C118.286 63.8428 118.572 64.0436 118.925 64.1761C119.281 64.3087 119.679 64.375 120.118 64.375C120.576 64.375 120.978 64.3068 121.322 64.1705C121.671 64.0303 121.944 63.8371 122.141 63.5909C122.338 63.3409 122.438 63.0492 122.442 62.7159C122.438 62.4129 122.349 62.1629 122.175 61.9659C122 61.7652 121.756 61.5985 121.442 61.4659C121.131 61.3295 120.768 61.2083 120.351 61.1023L119.027 60.7614C118.069 60.5152 117.311 60.142 116.754 59.642C116.201 59.1383 115.925 58.4697 115.925 57.6364C115.925 56.9508 116.11 56.3504 116.482 55.8352C116.857 55.3201 117.366 54.9205 118.01 54.6364C118.654 54.3485 119.383 54.2045 120.197 54.2045C121.023 54.2045 121.747 54.3485 122.368 54.6364C122.993 54.9205 123.483 55.3163 123.839 55.8239C124.196 56.3277 124.379 56.9072 124.391 57.5625H122.362ZM131.901 62.3295V57.2727H133.957V66H131.963V64.4489H131.872C131.675 64.9375 131.351 65.3371 130.901 65.6477C130.454 65.9583 129.902 66.1136 129.247 66.1136C128.675 66.1136 128.17 65.9867 127.73 65.733C127.295 65.4754 126.954 65.1023 126.707 64.6136C126.461 64.1212 126.338 63.5265 126.338 62.8295V57.2727H128.395V62.5114C128.395 63.0644 128.546 63.5038 128.849 63.8295C129.152 64.1553 129.55 64.3182 130.043 64.3182C130.346 64.3182 130.639 64.2443 130.923 64.0966C131.207 63.9489 131.44 63.7292 131.622 63.4375C131.808 63.142 131.901 62.7727 131.901 62.3295ZM136.072 66V57.2727H138.038V58.7557H138.141C138.322 58.2557 138.624 57.8655 139.044 57.5852C139.464 57.3011 139.966 57.1591 140.55 57.1591C141.141 57.1591 141.639 57.303 142.044 57.5909C142.453 57.875 142.741 58.2633 142.908 58.7557H142.999C143.192 58.2708 143.518 57.8845 143.976 57.5966C144.438 57.3049 144.985 57.1591 145.618 57.1591C146.421 57.1591 147.076 57.4129 147.584 57.9205C148.091 58.428 148.345 59.1686 148.345 60.142V66H146.283V60.4602C146.283 59.9186 146.139 59.5227 145.851 59.2727C145.563 59.0189 145.211 58.892 144.794 58.892C144.298 58.892 143.91 59.0473 143.629 59.358C143.353 59.6648 143.214 60.0644 143.214 60.5568V66H141.197V60.375C141.197 59.9242 141.061 59.5644 140.788 59.2955C140.519 59.0265 140.167 58.892 139.732 58.892C139.436 58.892 139.167 58.9678 138.925 59.1193C138.682 59.267 138.489 59.4773 138.345 59.75C138.201 60.0189 138.129 60.3333 138.129 60.6932V66H136.072ZM150.432 66V57.2727H152.398V58.7557H152.5C152.682 58.2557 152.983 57.8655 153.403 57.5852C153.824 57.3011 154.326 57.1591 154.909 57.1591C155.5 57.1591 155.998 57.303 156.403 57.5909C156.813 57.875 157.1 58.2633 157.267 58.7557H157.358C157.551 58.2708 157.877 57.8845 158.335 57.5966C158.797 57.3049 159.345 57.1591 159.977 57.1591C160.78 57.1591 161.436 57.4129 161.943 57.9205C162.451 58.428 162.705 59.1686 162.705 60.142V66H160.642V60.4602C160.642 59.9186 160.498 59.5227 160.21 59.2727C159.922 59.0189 159.57 58.892 159.153 58.892C158.657 58.892 158.269 59.0473 157.989 59.358C157.712 59.6648 157.574 60.0644 157.574 60.5568V66H155.557V60.375C155.557 59.9242 155.42 59.5644 155.148 59.2955C154.879 59.0265 154.527 58.892 154.091 58.892C153.795 58.892 153.527 58.9678 153.284 59.1193C153.042 59.267 152.848 59.4773 152.705 59.75C152.561 60.0189 152.489 60.3333 152.489 60.6932V66H150.432ZM167.303 66.1761C166.75 66.1761 166.251 66.0777 165.808 65.8807C165.369 65.6799 165.02 65.3845 164.763 64.9943C164.509 64.6042 164.382 64.1231 164.382 63.5511C164.382 63.0587 164.473 62.6515 164.655 62.3295C164.837 62.0076 165.085 61.75 165.399 61.5568C165.714 61.3636 166.068 61.2178 166.462 61.1193C166.859 61.017 167.27 60.9432 167.695 60.8977C168.206 60.8447 168.621 60.7973 168.939 60.7557C169.257 60.7102 169.488 60.642 169.632 60.5511C169.78 60.4564 169.854 60.3106 169.854 60.1136V60.0795C169.854 59.6515 169.727 59.3201 169.473 59.0852C169.219 58.8504 168.854 58.733 168.376 58.733C167.873 58.733 167.473 58.8428 167.178 59.0625C166.886 59.2822 166.689 59.5417 166.587 59.8409L164.666 59.5682C164.818 59.0379 165.068 58.5947 165.416 58.2386C165.765 57.8788 166.191 57.6098 166.695 57.4318C167.198 57.25 167.755 57.1591 168.365 57.1591C168.786 57.1591 169.204 57.2083 169.621 57.3068C170.037 57.4053 170.418 57.5682 170.763 57.7955C171.107 58.0189 171.384 58.3239 171.592 58.7102C171.804 59.0966 171.911 59.5795 171.911 60.1591V66H169.933V64.8011H169.865C169.74 65.0436 169.564 65.2708 169.337 65.483C169.113 65.6913 168.831 65.8598 168.49 65.9886C168.153 66.1136 167.757 66.1761 167.303 66.1761ZM167.837 64.6648C168.25 64.6648 168.607 64.5833 168.911 64.4205C169.214 64.2538 169.446 64.0341 169.609 63.7614C169.776 63.4886 169.859 63.1913 169.859 62.8693V61.8409C169.795 61.8939 169.685 61.9432 169.53 61.9886C169.378 62.0341 169.208 62.0739 169.018 62.108C168.829 62.142 168.642 62.1723 168.456 62.1989C168.27 62.2254 168.109 62.2481 167.973 62.267C167.666 62.3087 167.392 62.3769 167.149 62.4716C166.907 62.5663 166.715 62.6989 166.575 62.8693C166.435 63.036 166.365 63.2519 166.365 63.517C166.365 63.8958 166.503 64.1818 166.78 64.375C167.056 64.5682 167.409 64.6648 167.837 64.6648ZM173.979 66V57.2727H175.973V58.7273H176.064C176.223 58.2235 176.496 57.8352 176.882 57.5625C177.272 57.286 177.717 57.1477 178.217 57.1477C178.331 57.1477 178.458 57.1534 178.598 57.1648C178.742 57.1723 178.861 57.1856 178.956 57.2045V59.0966C178.869 59.0663 178.731 59.0398 178.541 59.017C178.356 58.9905 178.176 58.9773 178.001 58.9773C177.626 58.9773 177.289 59.0587 176.99 59.2216C176.695 59.3807 176.462 59.6023 176.291 59.8864C176.121 60.1705 176.036 60.4981 176.036 60.8693V66H173.979ZM181.866 69.2727C181.586 69.2727 181.327 69.25 181.088 69.2045C180.853 69.1629 180.666 69.1136 180.526 69.0568L181.003 67.4545C181.302 67.5417 181.569 67.5833 181.804 67.5795C182.039 67.5758 182.245 67.5019 182.423 67.358C182.605 67.2178 182.759 66.983 182.884 66.6534L183.06 66.1818L179.895 57.2727H182.077L184.088 63.8636H184.179L186.196 57.2727H188.384L184.889 67.0568C184.726 67.5189 184.51 67.9148 184.241 68.2443C183.973 68.5777 183.643 68.8314 183.253 69.0057C182.866 69.1837 182.404 69.2727 181.866 69.2727Z" fill="#1A1919"/>
<path d="M222.057 55.2727H223.318L226.284 62.517H226.386L229.352 55.2727H230.614V64H229.625V57.3693H229.54L226.812 64H225.858L223.131 57.3693H223.045V64H222.057V55.2727ZM234.522 64.1534C234.108 64.1534 233.731 64.0753 233.393 63.919C233.055 63.7599 232.787 63.5312 232.588 63.233C232.389 62.9318 232.289 62.5682 232.289 62.142C232.289 61.767 232.363 61.4631 232.511 61.2301C232.659 60.9943 232.856 60.8097 233.103 60.6761C233.35 60.5426 233.623 60.4432 233.922 60.3778C234.223 60.3097 234.525 60.2557 234.829 60.2159C235.227 60.1648 235.549 60.1264 235.797 60.1009C236.047 60.0724 236.228 60.0256 236.342 59.9602C236.458 59.8949 236.517 59.7812 236.517 59.6193V59.5852C236.517 59.1648 236.402 58.8381 236.172 58.6051C235.944 58.3722 235.599 58.2557 235.136 58.2557C234.656 58.2557 234.279 58.3608 234.007 58.571C233.734 58.7812 233.542 59.0057 233.431 59.2443L232.477 58.9034C232.647 58.5057 232.875 58.196 233.159 57.9744C233.446 57.75 233.758 57.5937 234.096 57.5057C234.437 57.4148 234.772 57.3693 235.102 57.3693C235.312 57.3693 235.554 57.3949 235.826 57.446C236.102 57.4943 236.368 57.5952 236.623 57.7486C236.882 57.902 237.096 58.1335 237.267 58.4432C237.437 58.7528 237.522 59.1676 237.522 59.6875V64H236.517V63.1136H236.466C236.397 63.2557 236.284 63.4077 236.125 63.5696C235.966 63.7315 235.754 63.8693 235.49 63.983C235.225 64.0966 234.903 64.1534 234.522 64.1534ZM234.676 63.25C235.074 63.25 235.409 63.1719 235.681 63.0156C235.957 62.8594 236.164 62.6577 236.304 62.4105C236.446 62.1634 236.517 61.9034 236.517 61.6307V60.7102C236.474 60.7614 236.38 60.8082 236.235 60.8509C236.093 60.8906 235.929 60.9261 235.741 60.9574C235.556 60.9858 235.376 61.0114 235.2 61.0341C235.027 61.054 234.886 61.071 234.778 61.0852C234.517 61.1193 234.272 61.1747 234.045 61.2514C233.821 61.3253 233.639 61.4375 233.5 61.5881C233.363 61.7358 233.295 61.9375 233.295 62.1932C233.295 62.5426 233.424 62.8068 233.683 62.9858C233.944 63.1619 234.275 63.25 234.676 63.25ZM239.358 64V57.4545H240.33V58.4432H240.398C240.517 58.1193 240.733 57.8565 241.045 57.6548C241.358 57.4531 241.71 57.3523 242.102 57.3523C242.176 57.3523 242.268 57.3537 242.379 57.3565C242.49 57.3594 242.574 57.3636 242.631 57.3693V58.392C242.597 58.3835 242.518 58.3707 242.396 58.3537C242.277 58.3338 242.151 58.3239 242.017 58.3239C241.699 58.3239 241.415 58.3906 241.165 58.5241C240.918 58.6548 240.722 58.8366 240.577 59.0696C240.435 59.2997 240.364 59.5625 240.364 59.858V64H239.358ZM247.181 64V63.233L250.061 60.0795C250.4 59.7102 250.678 59.3892 250.897 59.1165C251.115 58.8409 251.277 58.5824 251.382 58.3409C251.49 58.0966 251.544 57.8409 251.544 57.5739C251.544 57.267 251.471 57.0014 251.323 56.777C251.178 56.5526 250.979 56.3793 250.726 56.2571C250.473 56.1349 250.189 56.0739 249.874 56.0739C249.539 56.0739 249.246 56.1435 248.996 56.2827C248.749 56.419 248.557 56.6108 248.421 56.858C248.287 57.1051 248.221 57.3949 248.221 57.7273H247.215C247.215 57.2159 247.333 56.767 247.569 56.3807C247.804 55.9943 248.125 55.6932 248.532 55.4773C248.941 55.2614 249.4 55.1534 249.908 55.1534C250.419 55.1534 250.873 55.2614 251.267 55.4773C251.662 55.6932 251.972 55.9844 252.196 56.3509C252.421 56.7173 252.533 57.125 252.533 57.5739C252.533 57.8949 252.475 58.2088 252.358 58.5156C252.245 58.8196 252.046 59.1591 251.762 59.5341C251.48 59.9062 251.09 60.3608 250.59 60.8977L248.63 62.9943V63.0625H252.686V64H247.181ZM257.293 64.1193C256.651 64.1193 256.104 63.9446 255.652 63.5952C255.201 63.2429 254.855 62.733 254.617 62.0653C254.378 61.3949 254.259 60.5852 254.259 59.6364C254.259 58.6932 254.378 57.8878 254.617 57.2202C254.858 56.5497 255.205 56.0384 255.657 55.6861C256.111 55.331 256.657 55.1534 257.293 55.1534C257.929 55.1534 258.473 55.331 258.925 55.6861C259.38 56.0384 259.726 56.5497 259.965 57.2202C260.206 57.8878 260.327 58.6932 260.327 59.6364C260.327 60.5852 260.208 61.3949 259.969 62.0653C259.73 62.733 259.385 63.2429 258.934 63.5952C258.482 63.9446 257.935 64.1193 257.293 64.1193ZM257.293 63.1818C257.929 63.1818 258.424 62.875 258.776 62.2614C259.128 61.6477 259.304 60.7727 259.304 59.6364C259.304 58.8807 259.223 58.2372 259.061 57.706C258.902 57.1747 258.672 56.7699 258.371 56.4915C258.073 56.2131 257.713 56.0739 257.293 56.0739C256.662 56.0739 256.169 56.3849 255.814 57.0071C255.459 57.6264 255.282 58.5028 255.282 59.6364C255.282 60.392 255.361 61.0341 255.52 61.5625C255.679 62.0909 255.908 62.4929 256.206 62.7685C256.507 63.044 256.87 63.1818 257.293 63.1818ZM261.946 64V63.233L264.827 60.0795C265.165 59.7102 265.444 59.3892 265.662 59.1165C265.881 58.8409 266.043 58.5824 266.148 58.3409C266.256 58.0966 266.31 57.8409 266.31 57.5739C266.31 57.267 266.236 57.0014 266.088 56.777C265.944 56.5526 265.745 56.3793 265.492 56.2571C265.239 56.1349 264.955 56.0739 264.64 56.0739C264.304 56.0739 264.012 56.1435 263.762 56.2827C263.515 56.419 263.323 56.6108 263.186 56.858C263.053 57.1051 262.986 57.3949 262.986 57.7273H261.98C261.98 57.2159 262.098 56.767 262.334 56.3807C262.57 55.9943 262.891 55.6932 263.297 55.4773C263.706 55.2614 264.165 55.1534 264.674 55.1534C265.185 55.1534 265.638 55.2614 266.033 55.4773C266.428 55.6932 266.738 55.9844 266.962 56.3509C267.186 56.7173 267.299 57.125 267.299 57.5739C267.299 57.8949 267.24 58.2088 267.124 58.5156C267.01 58.8196 266.811 59.1591 266.527 59.5341C266.246 59.9062 265.855 60.3608 265.355 60.8977L263.395 62.9943V63.0625H267.452V64H261.946ZM269.212 64V63.233L272.093 60.0795C272.431 59.7102 272.709 59.3892 272.928 59.1165C273.147 58.8409 273.309 58.5824 273.414 58.3409C273.522 58.0966 273.576 57.8409 273.576 57.5739C273.576 57.267 273.502 57.0014 273.354 56.777C273.209 56.5526 273.01 56.3793 272.757 56.2571C272.505 56.1349 272.221 56.0739 271.905 56.0739C271.57 56.0739 271.277 56.1435 271.027 56.2827C270.78 56.419 270.588 56.6108 270.452 56.858C270.319 57.1051 270.252 57.3949 270.252 57.7273H269.246C269.246 57.2159 269.364 56.767 269.6 56.3807C269.836 55.9943 270.157 55.6932 270.563 55.4773C270.972 55.2614 271.431 55.1534 271.939 55.1534C272.451 55.1534 272.904 55.2614 273.299 55.4773C273.694 55.6932 274.003 55.9844 274.228 56.3509C274.452 56.7173 274.564 57.125 274.564 57.5739C274.564 57.8949 274.506 58.2088 274.39 58.5156C274.276 58.8196 274.077 59.1591 273.793 59.5341C273.512 59.9062 273.121 60.3608 272.621 60.8977L270.661 62.9943V63.0625H274.718V64H269.212ZM283.62 59.1676V60.1051H279.801V59.1676H283.62ZM296.264 59.6364C296.264 60.5568 296.098 61.3523 295.766 62.0227C295.433 62.6932 294.977 63.2102 294.398 63.5739C293.818 63.9375 293.156 64.1193 292.412 64.1193C291.668 64.1193 291.006 63.9375 290.426 63.5739C289.847 63.2102 289.391 62.6932 289.058 62.0227C288.726 61.3523 288.56 60.5568 288.56 59.6364C288.56 58.7159 288.726 57.9205 289.058 57.25C289.391 56.5795 289.847 56.0625 290.426 55.6989C291.006 55.3352 291.668 55.1534 292.412 55.1534C293.156 55.1534 293.818 55.3352 294.398 55.6989C294.977 56.0625 295.433 56.5795 295.766 57.25C296.098 57.9205 296.264 58.7159 296.264 59.6364ZM295.241 59.6364C295.241 58.8807 295.115 58.2429 294.862 57.723C294.612 57.2031 294.273 56.8097 293.844 56.5426C293.418 56.2756 292.94 56.142 292.412 56.142C291.884 56.142 291.405 56.2756 290.976 56.5426C290.55 56.8097 290.21 57.2031 289.957 57.723C289.707 58.2429 289.582 58.8807 289.582 59.6364C289.582 60.392 289.707 61.0298 289.957 61.5497C290.21 62.0696 290.55 62.4631 290.976 62.7301C291.405 62.9972 291.884 63.1307 292.412 63.1307C292.94 63.1307 293.418 62.9972 293.844 62.7301C294.273 62.4631 294.612 62.0696 294.862 61.5497C295.115 61.0298 295.241 60.392 295.241 59.6364ZM300.564 64.1364C299.95 64.1364 299.422 63.9915 298.979 63.7017C298.536 63.4119 298.195 63.0128 297.956 62.5043C297.717 61.9957 297.598 61.4148 297.598 60.7614C297.598 60.0966 297.72 59.5099 297.964 59.0014C298.212 58.4901 298.555 58.0909 298.996 57.804C299.439 57.5142 299.956 57.3693 300.547 57.3693C301.007 57.3693 301.422 57.4545 301.791 57.625C302.161 57.7955 302.463 58.0341 302.699 58.3409C302.935 58.6477 303.081 59.0057 303.138 59.4148H302.132C302.055 59.1165 301.885 58.8523 301.621 58.6222C301.359 58.3892 301.007 58.2727 300.564 58.2727C300.172 58.2727 299.828 58.375 299.533 58.5795C299.24 58.7812 299.011 59.0668 298.847 59.4361C298.685 59.8026 298.604 60.233 298.604 60.7273C298.604 61.233 298.683 61.6733 298.842 62.0483C299.004 62.4233 299.232 62.7145 299.524 62.9219C299.82 63.1293 300.166 63.233 300.564 63.233C300.825 63.233 301.062 63.1875 301.276 63.0966C301.489 63.0057 301.669 62.875 301.817 62.7045C301.964 62.5341 302.07 62.3295 302.132 62.0909H303.138C303.081 62.4773 302.94 62.8253 302.716 63.1349C302.494 63.4418 302.2 63.6861 301.834 63.8679C301.47 64.0469 301.047 64.1364 300.564 64.1364ZM307.455 57.4545V58.3068H304.062V57.4545H307.455ZM305.051 55.8864H306.057V62.125C306.057 62.4091 306.098 62.6222 306.18 62.7642C306.266 62.9034 306.374 62.9972 306.504 63.0455C306.638 63.0909 306.778 63.1136 306.926 63.1136C307.037 63.1136 307.128 63.108 307.199 63.0966C307.27 63.0824 307.327 63.071 307.369 63.0625L307.574 63.9659C307.506 63.9915 307.411 64.017 307.288 64.0426C307.166 64.071 307.011 64.0852 306.824 64.0852C306.54 64.0852 306.261 64.0241 305.989 63.902C305.719 63.7798 305.494 63.5938 305.315 63.3438C305.139 63.0938 305.051 62.7784 305.051 62.3977V55.8864ZM312.325 64V63.233L315.206 60.0795C315.544 59.7102 315.822 59.3892 316.041 59.1165C316.26 58.8409 316.422 58.5824 316.527 58.3409C316.635 58.0966 316.689 57.8409 316.689 57.5739C316.689 57.267 316.615 57.0014 316.467 56.777C316.322 56.5526 316.124 56.3793 315.871 56.2571C315.618 56.1349 315.334 56.0739 315.018 56.0739C314.683 56.0739 314.391 56.1435 314.141 56.2827C313.893 56.419 313.702 56.6108 313.565 56.858C313.432 57.1051 313.365 57.3949 313.365 57.7273H312.359C312.359 57.2159 312.477 56.767 312.713 56.3807C312.949 55.9943 313.27 55.6932 313.676 55.4773C314.085 55.2614 314.544 55.1534 315.053 55.1534C315.564 55.1534 316.017 55.2614 316.412 55.4773C316.807 55.6932 317.116 55.9844 317.341 56.3509C317.565 56.7173 317.678 57.125 317.678 57.5739C317.678 57.8949 317.619 58.2088 317.503 58.5156C317.389 58.8196 317.19 59.1591 316.906 59.5341C316.625 59.9062 316.234 60.3608 315.734 60.8977L313.774 62.9943V63.0625H317.831V64H312.325ZM322.438 64.1193C321.795 64.1193 321.249 63.9446 320.797 63.5952C320.345 63.2429 320 62.733 319.761 62.0653C319.523 61.3949 319.403 60.5852 319.403 59.6364C319.403 58.6932 319.523 57.8878 319.761 57.2202C320.003 56.5497 320.349 56.0384 320.801 55.6861C321.256 55.331 321.801 55.1534 322.438 55.1534C323.074 55.1534 323.618 55.331 324.07 55.6861C324.524 56.0384 324.871 56.5497 325.109 57.2202C325.351 57.8878 325.472 58.6932 325.472 59.6364C325.472 60.5852 325.352 61.3949 325.114 62.0653C324.875 62.733 324.53 63.2429 324.078 63.5952C323.626 63.9446 323.08 64.1193 322.438 64.1193ZM322.438 63.1818C323.074 63.1818 323.568 62.875 323.92 62.2614C324.273 61.6477 324.449 60.7727 324.449 59.6364C324.449 58.8807 324.368 58.2372 324.206 57.706C324.047 57.1747 323.817 56.7699 323.516 56.4915C323.217 56.2131 322.858 56.0739 322.438 56.0739C321.807 56.0739 321.314 56.3849 320.959 57.0071C320.604 57.6264 320.426 58.5028 320.426 59.6364C320.426 60.392 320.506 61.0341 320.665 61.5625C320.824 62.0909 321.053 62.4929 321.351 62.7685C321.652 63.044 322.014 63.1818 322.438 63.1818ZM327.091 64V63.233L329.972 60.0795C330.31 59.7102 330.588 59.3892 330.807 59.1165C331.026 58.8409 331.188 58.5824 331.293 58.3409C331.401 58.0966 331.455 57.8409 331.455 57.5739C331.455 57.267 331.381 57.0014 331.233 56.777C331.088 56.5526 330.889 56.3793 330.636 56.2571C330.384 56.1349 330.099 56.0739 329.784 56.0739C329.449 56.0739 329.156 56.1435 328.906 56.2827C328.659 56.419 328.467 56.6108 328.331 56.858C328.197 57.1051 328.131 57.3949 328.131 57.7273H327.125C327.125 57.2159 327.243 56.767 327.479 56.3807C327.714 55.9943 328.036 55.6932 328.442 55.4773C328.851 55.2614 329.31 55.1534 329.818 55.1534C330.33 55.1534 330.783 55.2614 331.178 55.4773C331.572 55.6932 331.882 55.9844 332.107 56.3509C332.331 56.7173 332.443 57.125 332.443 57.5739C332.443 57.8949 332.385 58.2088 332.268 58.5156C332.155 58.8196 331.956 59.1591 331.672 59.5341C331.391 59.9062 331 60.3608 330.5 60.8977L328.54 62.9943V63.0625H332.597V64H327.091ZM334.357 64V63.233L337.237 60.0795C337.575 59.7102 337.854 59.3892 338.072 59.1165C338.291 58.8409 338.453 58.5824 338.558 58.3409C338.666 58.0966 338.72 57.8409 338.72 57.5739C338.72 57.267 338.646 57.0014 338.499 56.777C338.354 56.5526 338.155 56.3793 337.902 56.2571C337.649 56.1349 337.365 56.0739 337.05 56.0739C336.714 56.0739 336.422 56.1435 336.172 56.2827C335.925 56.419 335.733 56.6108 335.597 56.858C335.463 57.1051 335.396 57.3949 335.396 57.7273H334.391C334.391 57.2159 334.509 56.767 334.744 56.3807C334.98 55.9943 335.301 55.6932 335.707 55.4773C336.116 55.2614 336.575 55.1534 337.084 55.1534C337.595 55.1534 338.048 55.2614 338.443 55.4773C338.838 55.6932 339.148 55.9844 339.372 56.3509C339.597 56.7173 339.709 57.125 339.709 57.5739C339.709 57.8949 339.651 58.2088 339.534 58.5156C339.42 58.8196 339.222 59.1591 338.938 59.5341C338.656 59.9062 338.266 60.3608 337.766 60.8977L335.805 62.9943V63.0625H339.862V64H334.357Z" fill="#656575"/>
<path d="M353 58L357 62L361 58" stroke="#656575" stroke-width="2" stroke-linecap="round" stroke-linejoin="round"/>
<circle cx="532" cy="60" r="5" fill="#006AFF"/>
<path d="M546.057 64V55.2727H547.114V63.0625H551.17V64H546.057ZM554.597 64.1534C554.182 64.1534 553.805 64.0753 553.467 63.919C553.129 63.7599 552.861 63.5312 552.662 63.233C552.463 62.9318 552.364 62.5682 552.364 62.142C552.364 61.767 552.438 61.4631 552.585 61.2301C552.733 60.9943 552.93 60.8097 553.178 60.6761C553.425 60.5426 553.697 60.4432 553.996 60.3778C554.297 60.3097 554.599 60.2557 554.903 60.2159C555.301 60.1648 555.624 60.1264 555.871 60.1009C556.121 60.0724 556.303 60.0256 556.416 59.9602C556.533 59.8949 556.591 59.7812 556.591 59.6193V59.5852C556.591 59.1648 556.476 58.8381 556.246 58.6051C556.018 58.3722 555.673 58.2557 555.21 58.2557C554.73 58.2557 554.354 58.3608 554.081 58.571C553.808 58.7812 553.616 59.0057 553.506 59.2443L552.551 58.9034C552.722 58.5057 552.949 58.196 553.233 57.9744C553.52 57.75 553.832 57.5937 554.17 57.5057C554.511 57.4148 554.847 57.3693 555.176 57.3693C555.386 57.3693 555.628 57.3949 555.901 57.446C556.176 57.4943 556.442 57.5952 556.697 57.7486C556.956 57.902 557.17 58.1335 557.341 58.4432C557.511 58.7528 557.597 59.1676 557.597 59.6875V64H556.591V63.1136H556.54C556.472 63.2557 556.358 63.4077 556.199 63.5696C556.04 63.7315 555.828 63.8693 555.564 63.983C555.3 64.0966 554.977 64.1534 554.597 64.1534ZM554.75 63.25C555.148 63.25 555.483 63.1719 555.756 63.0156C556.031 62.8594 556.239 62.6577 556.378 62.4105C556.52 62.1634 556.591 61.9034 556.591 61.6307V60.7102C556.548 60.7614 556.455 60.8082 556.31 60.8509C556.168 60.8906 556.003 60.9261 555.815 60.9574C555.631 60.9858 555.45 61.0114 555.274 61.0341C555.101 61.054 554.96 61.071 554.852 61.0852C554.591 61.1193 554.347 61.1747 554.119 61.2514C553.895 61.3253 553.713 61.4375 553.574 61.5881C553.438 61.7358 553.369 61.9375 553.369 62.1932C553.369 62.5426 553.499 62.8068 553.757 62.9858C554.018 63.1619 554.349 63.25 554.75 63.25ZM564.069 58.9205L563.165 59.1761C563.108 59.0256 563.025 58.8793 562.914 58.7372C562.806 58.5923 562.658 58.473 562.471 58.3793C562.283 58.2855 562.043 58.2386 561.75 58.2386C561.35 58.2386 561.016 58.331 560.749 58.5156C560.485 58.6974 560.353 58.929 560.353 59.2102C560.353 59.4602 560.444 59.6577 560.625 59.8026C560.807 59.9474 561.091 60.0682 561.478 60.1648L562.449 60.4034C563.034 60.5455 563.471 60.7628 563.757 61.0554C564.044 61.3452 564.188 61.7187 564.188 62.1761C564.188 62.5511 564.08 62.8864 563.864 63.1818C563.651 63.4773 563.353 63.7102 562.969 63.8807C562.586 64.0511 562.14 64.1364 561.631 64.1364C560.963 64.1364 560.411 63.9915 559.973 63.7017C559.536 63.4119 559.259 62.9886 559.142 62.4318L560.097 62.1932C560.188 62.5455 560.36 62.8097 560.613 62.9858C560.868 63.1619 561.202 63.25 561.614 63.25C562.083 63.25 562.455 63.1506 562.73 62.9517C563.009 62.75 563.148 62.5085 563.148 62.2273C563.148 62 563.069 61.8097 562.909 61.6562C562.75 61.5 562.506 61.3835 562.176 61.3068L561.086 61.0511C560.486 60.9091 560.046 60.6889 559.765 60.3906C559.486 60.0895 559.347 59.7131 559.347 59.2614C559.347 58.892 559.451 58.5653 559.658 58.2812C559.868 57.9972 560.154 57.7741 560.515 57.6122C560.878 57.4503 561.29 57.3693 561.75 57.3693C562.398 57.3693 562.907 57.5114 563.276 57.7955C563.648 58.0795 563.912 58.4545 564.069 58.9205ZM568.548 57.4545V58.3068H565.156V57.4545H568.548ZM566.145 55.8864H567.151V62.125C567.151 62.4091 567.192 62.6222 567.274 62.7642C567.359 62.9034 567.467 62.9972 567.598 63.0455C567.732 63.0909 567.872 63.1136 568.02 63.1136C568.131 63.1136 568.222 63.108 568.293 63.0966C568.364 63.0824 568.42 63.071 568.463 63.0625L568.668 63.9659C568.599 63.9915 568.504 64.017 568.382 64.0426C568.26 64.071 568.105 64.0852 567.918 64.0852C567.634 64.0852 567.355 64.0241 567.082 63.902C566.813 63.7798 566.588 63.5938 566.409 63.3438C566.233 63.0938 566.145 62.7784 566.145 62.3977V55.8864ZM576.317 64.1193C575.959 64.1136 575.601 64.0455 575.243 63.9148C574.885 63.7841 574.558 63.5639 574.263 63.2543C573.967 62.9418 573.73 62.5199 573.551 61.9886C573.372 61.4545 573.283 60.7841 573.283 59.9773C573.283 59.2045 573.355 58.5199 573.5 57.9233C573.645 57.3239 573.855 56.8196 574.131 56.4105C574.406 55.9986 574.739 55.6861 575.128 55.473C575.52 55.2599 575.962 55.1534 576.453 55.1534C576.942 55.1534 577.376 55.2514 577.757 55.4474C578.141 55.6406 578.453 55.9105 578.695 56.2571C578.936 56.6037 579.092 57.0028 579.163 57.4545H578.124C578.027 57.0625 577.839 56.7372 577.561 56.4787C577.283 56.2202 576.913 56.0909 576.453 56.0909C575.777 56.0909 575.244 56.3849 574.855 56.973C574.469 57.5611 574.274 58.3864 574.271 59.4489H574.339C574.499 59.2074 574.688 59.0014 574.906 58.831C575.128 58.6577 575.372 58.5241 575.639 58.4304C575.906 58.3366 576.189 58.2898 576.487 58.2898C576.987 58.2898 577.445 58.4148 577.859 58.6648C578.274 58.9119 578.607 59.2543 578.857 59.6918C579.107 60.1264 579.232 60.625 579.232 61.1875C579.232 61.7273 579.111 62.2216 578.869 62.6705C578.628 63.1165 578.288 63.4716 577.851 63.7358C577.416 63.9972 576.905 64.125 576.317 64.1193ZM576.317 63.1818C576.675 63.1818 576.996 63.0923 577.28 62.9134C577.567 62.7344 577.793 62.4943 577.957 62.1932C578.125 61.892 578.209 61.5568 578.209 61.1875C578.209 60.8267 578.128 60.4986 577.966 60.2031C577.807 59.9048 577.587 59.6676 577.305 59.4915C577.027 59.3153 576.709 59.2273 576.351 59.2273C576.081 59.2273 575.83 59.2812 575.597 59.3892C575.364 59.4943 575.159 59.6392 574.983 59.8239C574.81 60.0085 574.673 60.2202 574.574 60.4588C574.474 60.6946 574.425 60.9432 574.425 61.2045C574.425 61.5511 574.506 61.875 574.668 62.1761C574.832 62.4773 575.057 62.7202 575.341 62.9048C575.628 63.0895 575.953 63.1818 576.317 63.1818ZM584.299 64V57.4545H585.271V58.4773H585.356C585.493 58.1278 585.713 57.8565 586.017 57.6634C586.321 57.4673 586.686 57.3693 587.112 57.3693C587.544 57.3693 587.903 57.4673 588.19 57.6634C588.48 57.8565 588.706 58.1278 588.868 58.4773H588.936C589.103 58.1392 589.355 57.8707 589.69 57.6719C590.025 57.4702 590.427 57.3693 590.896 57.3693C591.481 57.3693 591.96 57.5526 592.332 57.919C592.704 58.2827 592.89 58.8494 592.89 59.6193V64H591.885V59.6193C591.885 59.1364 591.752 58.7912 591.488 58.5838C591.224 58.3764 590.913 58.2727 590.555 58.2727C590.095 58.2727 589.738 58.4119 589.485 58.6903C589.233 58.9659 589.106 59.3153 589.106 59.7386V64H588.083V59.517C588.083 59.1449 587.963 58.8452 587.721 58.6179C587.48 58.3878 587.169 58.2727 586.788 58.2727C586.527 58.2727 586.282 58.3423 586.055 58.4815C585.831 58.6207 585.649 58.8139 585.51 59.0611C585.373 59.3054 585.305 59.5881 585.305 59.9091V64H584.299ZM597.388 64.1364C596.797 64.1364 596.279 63.9957 595.833 63.7145C595.39 63.4332 595.043 63.0398 594.793 62.5341C594.546 62.0284 594.422 61.4375 594.422 60.7614C594.422 60.0795 594.546 59.4844 594.793 58.9759C595.043 58.4673 595.39 58.0724 595.833 57.7912C596.279 57.5099 596.797 57.3693 597.388 57.3693C597.979 57.3693 598.496 57.5099 598.939 57.7912C599.385 58.0724 599.732 58.4673 599.979 58.9759C600.229 59.4844 600.354 60.0795 600.354 60.7614C600.354 61.4375 600.229 62.0284 599.979 62.5341C599.732 63.0398 599.385 63.4332 598.939 63.7145C598.496 63.9957 597.979 64.1364 597.388 64.1364ZM597.388 63.233C597.837 63.233 598.206 63.1179 598.496 62.8878C598.786 62.6577 599 62.3551 599.14 61.9801C599.279 61.6051 599.348 61.1989 599.348 60.7614C599.348 60.3239 599.279 59.9162 599.14 59.5384C599 59.1605 598.786 58.8551 598.496 58.6222C598.206 58.3892 597.837 58.2727 597.388 58.2727C596.939 58.2727 596.57 58.3892 596.28 58.6222C595.99 58.8551 595.776 59.1605 595.637 59.5384C595.498 59.9162 595.428 60.3239 595.428 60.7614C595.428 61.1989 595.498 61.6051 595.637 61.9801C595.776 62.3551 595.99 62.6577 596.28 62.8878C596.57 63.1179 596.939 63.233 597.388 63.233ZM602.895 60.0625V64H601.889V57.4545H602.861V58.4773H602.946C603.099 58.1449 603.332 57.8778 603.645 57.6761C603.957 57.4716 604.361 57.3693 604.855 57.3693C605.298 57.3693 605.686 57.4602 606.018 57.642C606.351 57.821 606.609 58.0938 606.794 58.4602C606.979 58.8239 607.071 59.2841 607.071 59.8409V64H606.065V59.9091C606.065 59.3949 605.932 58.9943 605.665 58.7074C605.398 58.4176 605.031 58.2727 604.565 58.2727C604.244 58.2727 603.957 58.3423 603.705 58.4815C603.455 58.6207 603.257 58.8239 603.112 59.0909C602.967 59.358 602.895 59.6818 602.895 60.0625ZM611.755 57.4545V58.3068H608.363V57.4545H611.755ZM609.352 55.8864H610.358V62.125C610.358 62.4091 610.399 62.6222 610.481 62.7642C610.566 62.9034 610.674 62.9972 610.805 63.0455C610.939 63.0909 611.079 63.1136 611.227 63.1136C611.338 63.1136 611.429 63.108 611.5 63.0966C611.571 63.0824 611.627 63.071 611.67 63.0625L611.875 63.9659C611.806 63.9915 611.711 64.017 611.589 64.0426C611.467 64.071 611.312 64.0852 611.125 64.0852C610.841 64.0852 610.562 64.0241 610.289 63.902C610.02 63.7798 609.795 63.5938 609.616 63.3438C609.44 63.0938 609.352 62.7784 609.352 62.3977V55.8864ZM614.414 60.0625V64H613.409V55.2727H614.414V58.4773H614.5C614.653 58.1392 614.883 57.8707 615.19 57.6719C615.5 57.4702 615.912 57.3693 616.426 57.3693C616.872 57.3693 617.262 57.4588 617.598 57.6378C617.933 57.8139 618.193 58.0852 618.377 58.4517C618.565 58.8153 618.659 59.2784 618.659 59.8409V64H617.653V59.9091C617.653 59.3892 617.518 58.9872 617.248 58.7031C616.981 58.4162 616.61 58.2727 616.136 58.2727C615.806 58.2727 615.511 58.3423 615.25 58.4815C614.991 58.6207 614.787 58.8239 614.636 59.0909C614.488 59.358 614.414 59.6818 614.414 60.0625ZM625.135 58.9205L624.232 59.1761C624.175 59.0256 624.091 58.8793 623.98 58.7372C623.872 58.5923 623.724 58.473 623.537 58.3793C623.349 58.2855 623.109 58.2386 622.817 58.2386C622.416 58.2386 622.082 58.331 621.815 58.5156C621.551 58.6974 621.419 58.929 621.419 59.2102C621.419 59.4602 621.51 59.6577 621.692 59.8026C621.874 59.9474 622.158 60.0682 622.544 60.1648L623.516 60.4034C624.101 60.5455 624.537 60.7628 624.824 61.0554C625.111 61.3452 625.254 61.7187 625.254 62.1761C625.254 62.5511 625.146 62.8864 624.93 63.1818C624.717 63.4773 624.419 63.7102 624.036 63.8807C623.652 64.0511 623.206 64.1364 622.697 64.1364C622.03 64.1364 621.477 63.9915 621.04 63.7017C620.602 63.4119 620.325 62.9886 620.209 62.4318L621.163 62.1932C621.254 62.5455 621.426 62.8097 621.679 62.9858C621.935 63.1619 622.268 63.25 622.68 63.25C623.149 63.25 623.521 63.1506 623.797 62.9517C624.075 62.75 624.214 62.5085 624.214 62.2273C624.214 62 624.135 61.8097 623.976 61.6562C623.817 61.5 623.572 61.3835 623.243 61.3068L622.152 61.0511C621.553 60.9091 621.112 60.6889 620.831 60.3906C620.553 60.0895 620.413 59.7131 620.413 59.2614C620.413 58.892 620.517 58.5653 620.724 58.2812C620.935 57.9972 621.22 57.7741 621.581 57.6122C621.945 57.4503 622.357 57.3693 622.817 57.3693C623.464 57.3693 623.973 57.5114 624.342 57.7955C624.714 58.0795 624.979 58.4545 625.135 58.9205Z" fill="#656575"/>
<circle opacity="0.5" cx="663" cy="60" r="5" fill="#656575"/>
<path d="M681.83 57.4545C681.778 57.0227 681.571 56.6875 681.207 56.4489C680.844 56.2102 680.398 56.0909 679.869 56.0909C679.483 56.0909 679.145 56.1534 678.855 56.2784C678.568 56.4034 678.344 56.5753 678.182 56.794C678.023 57.0128 677.943 57.2614 677.943 57.5398C677.943 57.7727 677.999 57.973 678.109 58.1406C678.223 58.3054 678.368 58.4432 678.544 58.554C678.72 58.6619 678.905 58.7514 679.098 58.8224C679.291 58.8906 679.469 58.946 679.631 58.9886L680.517 59.2273C680.744 59.2869 680.997 59.3693 681.276 59.4744C681.557 59.5795 681.825 59.723 682.081 59.9048C682.339 60.0838 682.553 60.3139 682.72 60.5952C682.888 60.8764 682.972 61.2216 682.972 61.6307C682.972 62.1023 682.848 62.5284 682.601 62.9091C682.357 63.2898 681.999 63.5923 681.527 63.8168C681.058 64.0412 680.489 64.1534 679.818 64.1534C679.193 64.1534 678.652 64.0526 678.195 63.8509C677.74 63.6491 677.382 63.3679 677.121 63.0071C676.862 62.6463 676.716 62.2273 676.682 61.75H677.773C677.801 62.0795 677.912 62.3523 678.105 62.5682C678.301 62.7812 678.548 62.9403 678.847 63.0455C679.148 63.1477 679.472 63.1989 679.818 63.1989C680.222 63.1989 680.584 63.1335 680.905 63.0028C681.226 62.8693 681.48 62.6847 681.668 62.4489C681.855 62.2102 681.949 61.9318 681.949 61.6136C681.949 61.3239 681.868 61.0881 681.706 60.9062C681.544 60.7244 681.331 60.5767 681.067 60.4631C680.803 60.3494 680.517 60.25 680.21 60.1648L679.136 59.858C678.455 59.6619 677.915 59.3821 677.517 59.0185C677.119 58.6548 676.92 58.179 676.92 57.5909C676.92 57.1023 677.053 56.6761 677.317 56.3125C677.584 55.946 677.942 55.6619 678.391 55.4602C678.842 55.2557 679.347 55.1534 679.903 55.1534C680.466 55.1534 680.966 55.2543 681.403 55.456C681.841 55.6548 682.188 55.9276 682.443 56.2741C682.702 56.6207 682.838 57.0142 682.852 57.4545H681.83ZM686.499 64.1534C686.084 64.1534 685.708 64.0753 685.37 63.919C685.032 63.7599 684.763 63.5312 684.564 63.233C684.365 62.9318 684.266 62.5682 684.266 62.142C684.266 61.767 684.34 61.4631 684.488 61.2301C684.635 60.9943 684.833 60.8097 685.08 60.6761C685.327 60.5426 685.6 60.4432 685.898 60.3778C686.199 60.3097 686.502 60.2557 686.806 60.2159C687.203 60.1648 687.526 60.1264 687.773 60.1009C688.023 60.0724 688.205 60.0256 688.319 59.9602C688.435 59.8949 688.493 59.7812 688.493 59.6193V59.5852C688.493 59.1648 688.378 58.8381 688.148 58.6051C687.921 58.3722 687.576 58.2557 687.113 58.2557C686.632 58.2557 686.256 58.3608 685.983 58.571C685.711 58.7812 685.519 59.0057 685.408 59.2443L684.453 58.9034C684.624 58.5057 684.851 58.196 685.135 57.9744C685.422 57.75 685.735 57.5937 686.073 57.5057C686.414 57.4148 686.749 57.3693 687.078 57.3693C687.289 57.3693 687.53 57.3949 687.803 57.446C688.078 57.4943 688.344 57.5952 688.6 57.7486C688.858 57.902 689.073 58.1335 689.243 58.4432C689.414 58.7528 689.499 59.1676 689.499 59.6875V64H688.493V63.1136H688.442C688.374 63.2557 688.26 63.4077 688.101 63.5696C687.942 63.7315 687.73 63.8693 687.466 63.983C687.202 64.0966 686.88 64.1534 686.499 64.1534ZM686.652 63.25C687.05 63.25 687.385 63.1719 687.658 63.0156C687.934 62.8594 688.141 62.6577 688.28 62.4105C688.422 62.1634 688.493 61.9034 688.493 61.6307V60.7102C688.451 60.7614 688.357 60.8082 688.212 60.8509C688.07 60.8906 687.905 60.9261 687.718 60.9574C687.533 60.9858 687.353 61.0114 687.176 61.0341C687.003 61.054 686.863 61.071 686.755 61.0852C686.493 61.1193 686.249 61.1747 686.022 61.2514C685.797 61.3253 685.615 61.4375 685.476 61.5881C685.34 61.7358 685.272 61.9375 685.272 62.1932C685.272 62.5426 685.401 62.8068 685.659 62.9858C685.921 63.1619 686.252 63.25 686.652 63.25ZM691.335 64V57.4545H692.306V58.4773H692.391C692.528 58.1278 692.748 57.8565 693.052 57.6634C693.356 57.4673 693.721 57.3693 694.147 57.3693C694.579 57.3693 694.938 57.4673 695.225 57.6634C695.515 57.8565 695.741 58.1278 695.903 58.4773H695.971C696.138 58.1392 696.39 57.8707 696.725 57.6719C697.06 57.4702 697.462 57.3693 697.931 57.3693C698.516 57.3693 698.995 57.5526 699.367 57.919C699.739 58.2827 699.925 58.8494 699.925 59.6193V64H698.92V59.6193C698.92 59.1364 698.788 58.7912 698.523 58.5838C698.259 58.3764 697.948 58.2727 697.59 58.2727C697.13 58.2727 696.773 58.4119 696.521 58.6903C696.268 58.9659 696.141 59.3153 696.141 59.7386V64H695.119V59.517C695.119 59.1449 694.998 58.8452 694.756 58.6179C694.515 58.3878 694.204 58.2727 693.823 58.2727C693.562 58.2727 693.317 58.3423 693.09 58.4815C692.866 58.6207 692.684 58.8139 692.545 59.0611C692.408 59.3054 692.34 59.5881 692.34 59.9091V64H691.335ZM704.509 64.1364C703.878 64.1364 703.334 63.9972 702.876 63.7188C702.422 63.4375 702.071 63.0455 701.824 62.5426C701.58 62.0369 701.457 61.4489 701.457 60.7784C701.457 60.108 701.58 59.517 701.824 59.0057C702.071 58.4915 702.415 58.0909 702.855 57.804C703.298 57.5142 703.815 57.3693 704.406 57.3693C704.747 57.3693 705.084 57.4261 705.416 57.5398C705.749 57.6534 706.051 57.8381 706.324 58.0938C706.597 58.3466 706.814 58.6818 706.976 59.0994C707.138 59.517 707.219 60.0312 707.219 60.642V61.0682H702.173V60.1989H706.196C706.196 59.8295 706.122 59.5 705.974 59.2102C705.83 58.9205 705.622 58.6918 705.352 58.5241C705.085 58.3565 704.77 58.2727 704.406 58.2727C704.006 58.2727 703.659 58.3722 703.366 58.571C703.077 58.767 702.854 59.0227 702.697 59.3381C702.541 59.6534 702.463 59.9915 702.463 60.3523V60.9318C702.463 61.4261 702.548 61.8452 702.719 62.1889C702.892 62.5298 703.132 62.7898 703.439 62.9688C703.746 63.1449 704.102 63.233 704.509 63.233C704.773 63.233 705.011 63.196 705.224 63.1222C705.44 63.0455 705.626 62.9318 705.783 62.7812C705.939 62.6278 706.06 62.4375 706.145 62.2102L707.116 62.483C707.014 62.8125 706.842 63.1023 706.601 63.3523C706.359 63.5994 706.061 63.7926 705.706 63.9318C705.351 64.0682 704.952 64.1364 704.509 64.1364ZM712.124 66.4545V57.4545H713.095V58.4943H713.214C713.288 58.3807 713.391 58.2358 713.521 58.0597C713.655 57.8807 713.845 57.7216 714.092 57.5824C714.342 57.4403 714.68 57.3693 715.107 57.3693C715.658 57.3693 716.143 57.5071 716.564 57.7827C716.984 58.0582 717.313 58.4489 717.548 58.9545C717.784 59.4602 717.902 60.0568 717.902 60.7443C717.902 61.4375 717.784 62.0384 717.548 62.5469C717.313 63.0526 716.986 63.4446 716.568 63.723C716.151 63.9986 715.669 64.1364 715.124 64.1364C714.703 64.1364 714.366 64.0668 714.114 63.9276C713.861 63.7855 713.666 63.625 713.53 63.446C713.393 63.2642 713.288 63.1136 713.214 62.9943H713.129V66.4545H712.124ZM713.112 60.7273C713.112 61.2216 713.185 61.6577 713.33 62.0355C713.474 62.4105 713.686 62.7045 713.964 62.9176C714.243 63.1278 714.584 63.233 714.987 63.233C715.408 63.233 715.759 63.1222 716.04 62.9006C716.324 62.6761 716.537 62.375 716.679 61.9972C716.824 61.6165 716.896 61.1932 716.896 60.7273C716.896 60.267 716.825 59.8523 716.683 59.483C716.544 59.1108 716.332 58.8168 716.048 58.6009C715.767 58.3821 715.413 58.2727 714.987 58.2727C714.578 58.2727 714.234 58.3764 713.956 58.5838C713.678 58.7884 713.467 59.0753 713.325 59.4446C713.183 59.8111 713.112 60.2386 713.112 60.7273ZM722.18 64.1364C721.55 64.1364 721.006 63.9972 720.548 63.7188C720.094 63.4375 719.743 63.0455 719.496 62.5426C719.251 62.0369 719.129 61.4489 719.129 60.7784C719.129 60.108 719.251 59.517 719.496 59.0057C719.743 58.4915 720.087 58.0909 720.527 57.804C720.97 57.5142 721.487 57.3693 722.078 57.3693C722.419 57.3693 722.756 57.4261 723.088 57.5398C723.42 57.6534 723.723 57.8381 723.996 58.0938C724.268 58.3466 724.486 58.6818 724.648 59.0994C724.81 59.517 724.891 60.0312 724.891 60.642V61.0682H719.845V60.1989H723.868C723.868 59.8295 723.794 59.5 723.646 59.2102C723.501 58.9205 723.294 58.6918 723.024 58.5241C722.757 58.3565 722.442 58.2727 722.078 58.2727C721.678 58.2727 721.331 58.3722 721.038 58.571C720.749 58.767 720.526 59.0227 720.369 59.3381C720.213 59.6534 720.135 59.9915 720.135 60.3523V60.9318C720.135 61.4261 720.22 61.8452 720.391 62.1889C720.564 62.5298 720.804 62.7898 721.111 62.9688C721.418 63.1449 721.774 63.233 722.18 63.233C722.445 63.233 722.683 63.196 722.896 63.1222C723.112 63.0455 723.298 62.9318 723.455 62.7812C723.611 62.6278 723.732 62.4375 723.817 62.2102L724.788 62.483C724.686 62.8125 724.514 63.1023 724.273 63.3523C724.031 63.5994 723.733 63.7926 723.378 63.9318C723.023 64.0682 722.624 64.1364 722.18 64.1364ZM726.42 64V57.4545H727.392V58.4432H727.46C727.58 58.1193 727.795 57.8565 728.108 57.6548C728.42 57.4531 728.773 57.3523 729.165 57.3523C729.239 57.3523 729.331 57.3537 729.442 57.3565C729.553 57.3594 729.636 57.3636 729.693 57.3693V58.392C729.659 58.3835 729.581 58.3707 729.459 58.3537C729.339 58.3338 729.213 58.3239 729.08 58.3239C728.761 58.3239 728.477 58.3906 728.227 58.5241C727.98 58.6548 727.784 58.8366 727.639 59.0696C727.497 59.2997 727.426 59.5625 727.426 59.858V64H726.42ZM730.885 64V57.4545H731.891V64H730.885ZM731.397 56.3636C731.201 56.3636 731.032 56.2969 730.89 56.1634C730.75 56.0298 730.681 55.8693 730.681 55.6818C730.681 55.4943 730.75 55.3338 730.89 55.2003C731.032 55.0668 731.201 55 731.397 55C731.593 55 731.76 55.0668 731.9 55.2003C732.042 55.3338 732.113 55.4943 732.113 55.6818C732.113 55.8693 732.042 56.0298 731.9 56.1634C731.76 56.2969 731.593 56.3636 731.397 56.3636ZM736.392 64.1364C735.801 64.1364 735.283 63.9957 734.837 63.7145C734.393 63.4332 734.047 63.0398 733.797 62.5341C733.55 62.0284 733.426 61.4375 733.426 60.7614C733.426 60.0795 733.55 59.4844 733.797 58.9759C734.047 58.4673 734.393 58.0724 734.837 57.7912C735.283 57.5099 735.801 57.3693 736.392 57.3693C736.983 57.3693 737.5 57.5099 737.943 57.7912C738.389 58.0724 738.736 58.4673 738.983 58.9759C739.233 59.4844 739.358 60.0795 739.358 60.7614C739.358 61.4375 739.233 62.0284 738.983 62.5341C738.736 63.0398 738.389 63.4332 737.943 63.7145C737.5 63.9957 736.983 64.1364 736.392 64.1364ZM736.392 63.233C736.841 63.233 737.21 63.1179 737.5 62.8878C737.79 62.6577 738.004 62.3551 738.143 61.9801C738.283 61.6051 738.352 61.1989 738.352 60.7614C738.352 60.3239 738.283 59.9162 738.143 59.5384C738.004 59.1605 737.79 58.8551 737.5 58.6222C737.21 58.3892 736.841 58.2727 736.392 58.2727C735.943 58.2727 735.574 58.3892 735.284 58.6222C734.994 58.8551 734.78 59.1605 734.641 59.5384C734.501 59.9162 734.432 60.3239 734.432 60.7614C734.432 61.1989 734.501 61.6051 734.641 61.9801C734.78 62.3551 734.994 62.6577 735.284 62.8878C735.574 63.1179 735.943 63.233 736.392 63.233ZM743.365 64.1364C742.819 64.1364 742.338 63.9986 741.92 63.723C741.502 63.4446 741.176 63.0526 740.94 62.5469C740.704 62.0384 740.586 61.4375 740.586 60.7443C740.586 60.0568 740.704 59.4602 740.94 58.9545C741.176 58.4489 741.504 58.0582 741.924 57.7827C742.345 57.5071 742.831 57.3693 743.382 57.3693C743.808 57.3693 744.145 57.4403 744.392 57.5824C744.642 57.7216 744.832 57.8807 744.963 58.0597C745.096 58.2358 745.2 58.3807 745.274 58.4943H745.359V55.2727H746.365V64H745.393V62.9943H745.274C745.2 63.1136 745.095 63.2642 744.958 63.446C744.822 63.625 744.627 63.7855 744.375 63.9276C744.122 64.0668 743.785 64.1364 743.365 64.1364ZM743.501 63.233C743.904 63.233 744.245 63.1278 744.524 62.9176C744.802 62.7045 745.014 62.4105 745.159 62.0355C745.304 61.6577 745.376 61.2216 745.376 60.7273C745.376 60.2386 745.305 59.8111 745.163 59.4446C745.021 59.0753 744.811 58.7884 744.532 58.5838C744.254 58.3764 743.91 58.2727 743.501 58.2727C743.075 58.2727 742.72 58.3821 742.436 58.6009C742.154 58.8168 741.943 59.1108 741.801 59.483C741.662 59.8523 741.592 60.267 741.592 60.7273C741.592 61.1932 741.663 61.6165 741.805 61.9972C741.95 62.375 742.163 62.6761 742.444 62.9006C742.728 63.1222 743.081 63.233 743.501 63.233ZM752.727 55.2727V64H751.721V55.2727H752.727ZM756.495 64.1534C756.08 64.1534 755.704 64.0753 755.366 63.919C755.028 63.7599 754.759 63.5312 754.56 63.233C754.362 62.9318 754.262 62.5682 754.262 62.142C754.262 61.767 754.336 61.4631 754.484 61.2301C754.631 60.9943 754.829 60.8097 755.076 60.6761C755.323 60.5426 755.596 60.4432 755.894 60.3778C756.195 60.3097 756.498 60.2557 756.802 60.2159C757.2 60.1648 757.522 60.1264 757.769 60.1009C758.019 60.0724 758.201 60.0256 758.315 59.9602C758.431 59.8949 758.489 59.7812 758.489 59.6193V59.5852C758.489 59.1648 758.374 58.8381 758.144 58.6051C757.917 58.3722 757.572 58.2557 757.109 58.2557C756.629 58.2557 756.252 58.3608 755.979 58.571C755.707 58.7812 755.515 59.0057 755.404 59.2443L754.45 58.9034C754.62 58.5057 754.847 58.196 755.131 57.9744C755.418 57.75 755.731 57.5937 756.069 57.5057C756.41 57.4148 756.745 57.3693 757.075 57.3693C757.285 57.3693 757.526 57.3949 757.799 57.446C758.075 57.4943 758.34 57.5952 758.596 57.7486C758.854 57.902 759.069 58.1335 759.239 58.4432C759.41 58.7528 759.495 59.1676 759.495 59.6875V64H758.489V63.1136H758.438C758.37 63.2557 758.256 63.4077 758.097 63.5696C757.938 63.7315 757.727 63.8693 757.462 63.983C757.198 64.0966 756.876 64.1534 756.495 64.1534ZM756.648 63.25C757.046 63.25 757.381 63.1719 757.654 63.0156C757.93 62.8594 758.137 62.6577 758.276 62.4105C758.418 62.1634 758.489 61.9034 758.489 61.6307V60.7102C758.447 60.7614 758.353 60.8082 758.208 60.8509C758.066 60.8906 757.901 60.9261 757.714 60.9574C757.529 60.9858 757.349 61.0114 757.173 61.0341C756.999 61.054 756.859 61.071 756.751 61.0852C756.489 61.1193 756.245 61.1747 756.018 61.2514C755.793 61.3253 755.612 61.4375 755.472 61.5881C755.336 61.7358 755.268 61.9375 755.268 62.1932C755.268 62.5426 755.397 62.8068 755.656 62.9858C755.917 63.1619 756.248 63.25 756.648 63.25ZM765.967 58.9205L765.064 59.1761C765.007 59.0256 764.923 58.8793 764.812 58.7372C764.704 58.5923 764.556 58.473 764.369 58.3793C764.181 58.2855 763.941 58.2386 763.649 58.2386C763.248 58.2386 762.914 58.331 762.647 58.5156C762.383 58.6974 762.251 58.929 762.251 59.2102C762.251 59.4602 762.342 59.6577 762.524 59.8026C762.706 59.9474 762.99 60.0682 763.376 60.1648L764.348 60.4034C764.933 60.5455 765.369 60.7628 765.656 61.0554C765.943 61.3452 766.086 61.7187 766.086 62.1761C766.086 62.5511 765.978 62.8864 765.762 63.1818C765.549 63.4773 765.251 63.7102 764.868 63.8807C764.484 64.0511 764.038 64.1364 763.529 64.1364C762.862 64.1364 762.309 63.9915 761.872 63.7017C761.434 63.4119 761.157 62.9886 761.041 62.4318L761.995 62.1932C762.086 62.5455 762.258 62.8097 762.511 62.9858C762.767 63.1619 763.1 63.25 763.512 63.25C763.981 63.25 764.353 63.1506 764.629 62.9517C764.907 62.75 765.047 62.5085 765.047 62.2273C765.047 62 764.967 61.8097 764.808 61.6562C764.649 61.5 764.404 61.3835 764.075 61.3068L762.984 61.0511C762.385 60.9091 761.944 60.6889 761.663 60.3906C761.385 60.0895 761.245 59.7131 761.245 59.2614C761.245 58.892 761.349 58.5653 761.556 58.2812C761.767 57.9972 762.052 57.7741 762.413 57.6122C762.777 57.4503 763.189 57.3693 763.649 57.3693C764.297 57.3693 764.805 57.5114 765.174 57.7955C765.547 58.0795 765.811 58.4545 765.967 58.9205ZM770.447 57.4545V58.3068H767.055V57.4545H770.447ZM768.043 55.8864H769.049V62.125C769.049 62.4091 769.09 62.6222 769.173 62.7642C769.258 62.9034 769.366 62.9972 769.496 63.0455C769.63 63.0909 769.771 63.1136 769.918 63.1136C770.029 63.1136 770.12 63.108 770.191 63.0966C770.262 63.0824 770.319 63.071 770.362 63.0625L770.566 63.9659C770.498 63.9915 770.403 64.017 770.281 64.0426C770.158 64.071 770.004 64.0852 769.816 64.0852C769.532 64.0852 769.254 64.0241 768.981 63.902C768.711 63.7798 768.487 63.5938 768.308 63.3438C768.131 63.0938 768.043 62.7784 768.043 62.3977V55.8864ZM775.982 66.4545C775.812 66.4545 775.66 66.4403 775.526 66.4119C775.393 66.3864 775.3 66.3608 775.249 66.3352L775.505 65.4489C775.749 65.5114 775.965 65.5341 776.153 65.517C776.34 65.5 776.506 65.4162 776.651 65.2656C776.799 65.1179 776.934 64.8778 777.056 64.5455L777.244 64.0341L774.823 57.4545H775.914L777.721 62.6705H777.789L779.596 57.4545H780.687L777.908 64.9545C777.783 65.2926 777.629 65.5724 777.444 65.794C777.259 66.0185 777.045 66.1847 776.8 66.2926C776.559 66.4006 776.286 66.4545 775.982 66.4545ZM784.524 64.1364C783.893 64.1364 783.349 63.9972 782.892 63.7188C782.438 63.4375 782.087 63.0455 781.839 62.5426C781.595 62.0369 781.473 61.4489 781.473 60.7784C781.473 60.108 781.595 59.517 781.839 59.0057C782.087 58.4915 782.43 58.0909 782.871 57.804C783.314 57.5142 783.831 57.3693 784.422 57.3693C784.763 57.3693 785.099 57.4261 785.432 57.5398C785.764 57.6534 786.067 57.8381 786.339 58.0938C786.612 58.3466 786.83 58.6818 786.991 59.0994C787.153 59.517 787.234 60.0312 787.234 60.642V61.0682H782.189V60.1989H786.212C786.212 59.8295 786.138 59.5 785.99 59.2102C785.845 58.9205 785.638 58.6918 785.368 58.5241C785.101 58.3565 784.786 58.2727 784.422 58.2727C784.021 58.2727 783.675 58.3722 783.382 58.571C783.092 58.767 782.869 59.0227 782.713 59.3381C782.557 59.6534 782.479 59.9915 782.479 60.3523V60.9318C782.479 61.4261 782.564 61.8452 782.734 62.1889C782.908 62.5298 783.148 62.7898 783.455 62.9688C783.761 63.1449 784.118 63.233 784.524 63.233C784.788 63.233 785.027 63.196 785.24 63.1222C785.456 63.0455 785.642 62.9318 785.798 62.7812C785.955 62.6278 786.075 62.4375 786.161 62.2102L787.132 62.483C787.03 62.8125 786.858 63.1023 786.616 63.3523C786.375 63.5994 786.077 63.7926 785.722 63.9318C785.366 64.0682 784.967 64.1364 784.524 64.1364ZM790.69 64.1534C790.276 64.1534 789.899 64.0753 789.561 63.919C789.223 63.7599 788.955 63.5312 788.756 63.233C788.557 62.9318 788.457 62.5682 788.457 62.142C788.457 61.767 788.531 61.4631 788.679 61.2301C788.827 60.9943 789.024 60.8097 789.271 60.6761C789.518 60.5426 789.791 60.4432 790.089 60.3778C790.391 60.3097 790.693 60.2557 790.997 60.2159C791.395 60.1648 791.717 60.1264 791.964 60.1009C792.214 60.0724 792.396 60.0256 792.51 59.9602C792.626 59.8949 792.685 59.7812 792.685 59.6193V59.5852C792.685 59.1648 792.57 58.8381 792.339 58.6051C792.112 58.3722 791.767 58.2557 791.304 58.2557C790.824 58.2557 790.447 58.3608 790.175 58.571C789.902 58.7812 789.71 59.0057 789.599 59.2443L788.645 58.9034C788.815 58.5057 789.043 58.196 789.327 57.9744C789.614 57.75 789.926 57.5937 790.264 57.5057C790.605 57.4148 790.94 57.3693 791.27 57.3693C791.48 57.3693 791.722 57.3949 791.994 57.446C792.27 57.4943 792.536 57.5952 792.791 57.7486C793.05 57.902 793.264 58.1335 793.435 58.4432C793.605 58.7528 793.69 59.1676 793.69 59.6875V64H792.685V63.1136H792.634C792.565 63.2557 792.452 63.4077 792.293 63.5696C792.134 63.7315 791.922 63.8693 791.658 63.983C791.393 64.0966 791.071 64.1534 790.69 64.1534ZM790.844 63.25C791.241 63.25 791.577 63.1719 791.849 63.0156C792.125 62.8594 792.332 62.6577 792.472 62.4105C792.614 62.1634 792.685 61.9034 792.685 61.6307V60.7102C792.642 60.7614 792.548 60.8082 792.403 60.8509C792.261 60.8906 792.097 60.9261 791.909 60.9574C791.724 60.9858 791.544 61.0114 791.368 61.0341C791.195 61.054 791.054 61.071 790.946 61.0852C790.685 61.1193 790.44 61.1747 790.213 61.2514C789.989 61.3253 789.807 61.4375 789.668 61.5881C789.531 61.7358 789.463 61.9375 789.463 62.1932C789.463 62.5426 789.592 62.8068 789.851 62.9858C790.112 63.1619 790.443 63.25 790.844 63.25ZM795.526 64V57.4545H796.498V58.4432H796.566C796.685 58.1193 796.901 57.8565 797.213 57.6548C797.526 57.4531 797.878 57.3523 798.27 57.3523C798.344 57.3523 798.436 57.3537 798.547 57.3565C798.658 57.3594 798.742 57.3636 798.799 57.3693V58.392C798.765 58.3835 798.686 58.3707 798.564 58.3537C798.445 58.3338 798.319 58.3239 798.185 58.3239C797.867 58.3239 797.583 58.3906 797.333 58.5241C797.086 58.6548 796.89 58.8366 796.745 59.0696C796.603 59.2997 796.532 59.5625 796.532 59.858V64H795.526Z" fill="#656575"/>
<path d="M63.4773 109.091V98.1818H64.1761V109.091H63.4773ZM65.8295 101.455C65.7784 101.023 65.571 100.688 65.2074 100.449C64.8438 100.21 64.3977 100.091 63.8693 100.091C63.483 100.091 63.1449 100.153 62.8551 100.278C62.5682 100.403 62.3438 100.575 62.1818 100.794C62.0227 101.013 61.9432 101.261 61.9432 101.54C61.9432 101.773 61.9986 101.973 62.1094 102.141C62.223 102.305 62.3679 102.443 62.544 102.554C62.7202 102.662 62.9048 102.751 63.098 102.822C63.2912 102.891 63.4688 102.946 63.6307 102.989L64.517 103.227C64.7443 103.287 64.9972 103.369 65.2756 103.474C65.5568 103.58 65.8253 103.723 66.081 103.905C66.3395 104.084 66.5526 104.314 66.7202 104.595C66.8878 104.876 66.9716 105.222 66.9716 105.631C66.9716 106.102 66.848 106.528 66.6009 106.909C66.3565 107.29 65.9986 107.592 65.527 107.817C65.0582 108.041 64.4886 108.153 63.8182 108.153C63.1932 108.153 62.652 108.053 62.1946 107.851C61.7401 107.649 61.3821 107.368 61.1207 107.007C60.8622 106.646 60.7159 106.227 60.6818 105.75H61.7727C61.8011 106.08 61.9119 106.352 62.1051 106.568C62.3011 106.781 62.5483 106.94 62.8466 107.045C63.1477 107.148 63.4716 107.199 63.8182 107.199C64.2216 107.199 64.5838 107.134 64.9048 107.003C65.2259 106.869 65.4801 106.685 65.6676 106.449C65.8551 106.21 65.9489 105.932 65.9489 105.614C65.9489 105.324 65.8679 105.088 65.706 104.906C65.544 104.724 65.331 104.577 65.0668 104.463C64.8026 104.349 64.517 104.25 64.2102 104.165L63.1364 103.858C62.4545 103.662 61.9148 103.382 61.517 103.018C61.1193 102.655 60.9205 102.179 60.9205 101.591C60.9205 101.102 61.0526 100.676 61.3168 100.312C61.5838 99.946 61.9418 99.6619 62.3906 99.4602C62.8423 99.2557 63.3466 99.1534 63.9034 99.1534C64.4659 99.1534 64.9659 99.2543 65.4034 99.456C65.8409 99.6548 66.1875 99.9276 66.4432 100.274C66.7017 100.621 66.8381 101.014 66.8523 101.455H65.8295ZM71.5046 108.119C70.9421 108.119 70.4407 108.023 70.0004 107.83C69.5629 107.636 69.2148 107.368 68.9563 107.024C68.7006 106.678 68.5614 106.276 68.5387 105.818H69.6126C69.6353 106.099 69.7319 106.342 69.9023 106.547C70.0728 106.749 70.2958 106.905 70.5714 107.016C70.8469 107.126 71.1523 107.182 71.4876 107.182C71.8626 107.182 72.195 107.116 72.4847 106.986C72.7745 106.855 73.0018 106.673 73.1665 106.44C73.3313 106.207 73.4137 105.938 73.4137 105.631C73.4137 105.31 73.3342 105.027 73.1751 104.783C73.016 104.536 72.783 104.342 72.4762 104.203C72.1694 104.064 71.7944 103.994 71.3512 103.994H70.6523V103.057H71.3512C71.6978 103.057 72.0018 102.994 72.2631 102.869C72.5273 102.744 72.7333 102.568 72.881 102.341C73.0316 102.114 73.1069 101.847 73.1069 101.54C73.1069 101.244 73.0415 100.987 72.9109 100.768C72.7802 100.55 72.5955 100.379 72.3569 100.257C72.1211 100.135 71.8427 100.074 71.5217 100.074C71.2205 100.074 70.9364 100.129 70.6694 100.24C70.4052 100.348 70.1893 100.506 70.0217 100.713C69.854 100.918 69.7631 101.165 69.7489 101.455H68.7262C68.7433 100.997 68.881 100.597 69.1396 100.253C69.3981 99.9062 69.7362 99.6364 70.1538 99.4432C70.5742 99.25 71.0359 99.1534 71.5387 99.1534C72.0785 99.1534 72.5415 99.2628 72.9279 99.4815C73.3143 99.6974 73.6112 99.983 73.8185 100.338C74.0259 100.693 74.1296 101.077 74.1296 101.489C74.1296 101.98 74.0004 102.399 73.7418 102.746C73.4862 103.092 73.1381 103.332 72.6978 103.466V103.534C73.2489 103.625 73.6793 103.859 73.989 104.237C74.2987 104.612 74.4535 105.077 74.4535 105.631C74.4535 106.105 74.3242 106.531 74.0657 106.909C73.81 107.284 73.4606 107.58 73.0174 107.795C72.5742 108.011 72.07 108.119 71.5046 108.119ZM79.043 108.119C78.4009 108.119 77.854 107.945 77.4023 107.595C76.9506 107.243 76.6055 106.733 76.3668 106.065C76.1282 105.395 76.0089 104.585 76.0089 103.636C76.0089 102.693 76.1282 101.888 76.3668 101.22C76.6083 100.55 76.9549 100.038 77.4066 99.6861C77.8612 99.331 78.4066 99.1534 79.043 99.1534C79.6793 99.1534 80.2234 99.331 80.6751 99.6861C81.1296 100.038 81.4762 100.55 81.7148 101.22C81.9563 101.888 82.0771 102.693 82.0771 103.636C82.0771 104.585 81.9577 105.395 81.7191 106.065C81.4805 106.733 81.1353 107.243 80.6836 107.595C80.2319 107.945 79.685 108.119 79.043 108.119ZM79.043 107.182C79.6793 107.182 80.1737 106.875 80.5259 106.261C80.8782 105.648 81.0543 104.773 81.0543 103.636C81.0543 102.881 80.9734 102.237 80.8114 101.706C80.6523 101.175 80.4222 100.77 80.1211 100.491C79.8228 100.213 79.4634 100.074 79.043 100.074C78.4123 100.074 77.9194 100.385 77.5643 101.007C77.2092 101.626 77.0316 102.503 77.0316 103.636C77.0316 104.392 77.1112 105.034 77.2702 105.562C77.4293 106.091 77.658 106.493 77.9563 106.768C78.2575 107.044 78.6197 107.182 79.043 107.182ZM86.543 108.119C85.9009 108.119 85.354 107.945 84.9023 107.595C84.4506 107.243 84.1055 106.733 83.8668 106.065C83.6282 105.395 83.5089 104.585 83.5089 103.636C83.5089 102.693 83.6282 101.888 83.8668 101.22C84.1083 100.55 84.4549 100.038 84.9066 99.6861C85.3612 99.331 85.9066 99.1534 86.543 99.1534C87.1793 99.1534 87.7234 99.331 88.1751 99.6861C88.6296 100.038 88.9762 100.55 89.2148 101.22C89.4563 101.888 89.5771 102.693 89.5771 103.636C89.5771 104.585 89.4577 105.395 89.2191 106.065C88.9805 106.733 88.6353 107.243 88.1836 107.595C87.7319 107.945 87.185 108.119 86.543 108.119ZM86.543 107.182C87.1793 107.182 87.6737 106.875 88.0259 106.261C88.3782 105.648 88.5543 104.773 88.5543 103.636C88.5543 102.881 88.4734 102.237 88.3114 101.706C88.1523 101.175 87.9222 100.77 87.6211 100.491C87.3228 100.213 86.9634 100.074 86.543 100.074C85.9123 100.074 85.4194 100.385 85.0643 101.007C84.7092 101.626 84.5316 102.503 84.5316 103.636C84.5316 104.392 84.6112 105.034 84.7702 105.562C84.9293 106.091 85.158 106.493 85.4563 106.768C85.7575 107.044 86.1197 107.182 86.543 107.182ZM92.1509 105.614L92.1339 104.369H92.3384L95.2021 101.455H96.4464L93.3952 104.54H93.31L92.1509 105.614ZM91.2134 108V99.2727H92.2191V108H91.2134ZM95.3725 108L92.8157 104.761L93.5316 104.062L96.6509 108H95.3725Z" fill="#525256"/>
<path d="M63.4773 155.091V144.182H64.1761V155.091H63.4773ZM65.8295 147.455C65.7784 147.023 65.571 146.688 65.2074 146.449C64.8438 146.21 64.3977 146.091 63.8693 146.091C63.483 146.091 63.1449 146.153 62.8551 146.278C62.5682 146.403 62.3438 146.575 62.1818 146.794C62.0227 147.013 61.9432 147.261 61.9432 147.54C61.9432 147.773 61.9986 147.973 62.1094 148.141C62.223 148.305 62.3679 148.443 62.544 148.554C62.7202 148.662 62.9048 148.751 63.098 148.822C63.2912 148.891 63.4688 148.946 63.6307 148.989L64.517 149.227C64.7443 149.287 64.9972 149.369 65.2756 149.474C65.5568 149.58 65.8253 149.723 66.081 149.905C66.3395 150.084 66.5526 150.314 66.7202 150.595C66.8878 150.876 66.9716 151.222 66.9716 151.631C66.9716 152.102 66.848 152.528 66.6009 152.909C66.3565 153.29 65.9986 153.592 65.527 153.817C65.0582 154.041 64.4886 154.153 63.8182 154.153C63.1932 154.153 62.652 154.053 62.1946 153.851C61.7401 153.649 61.3821 153.368 61.1207 153.007C60.8622 152.646 60.7159 152.227 60.6818 151.75H61.7727C61.8011 152.08 61.9119 152.352 62.1051 152.568C62.3011 152.781 62.5483 152.94 62.8466 153.045C63.1477 153.148 63.4716 153.199 63.8182 153.199C64.2216 153.199 64.5838 153.134 64.9048 153.003C65.2259 152.869 65.4801 152.685 65.6676 152.449C65.8551 152.21 65.9489 151.932 65.9489 151.614C65.9489 151.324 65.8679 151.088 65.706 150.906C65.544 150.724 65.331 150.577 65.0668 150.463C64.8026 150.349 64.517 150.25 64.2102 150.165L63.1364 149.858C62.4545 149.662 61.9148 149.382 61.517 149.018C61.1193 148.655 60.9205 148.179 60.9205 147.591C60.9205 147.102 61.0526 146.676 61.3168 146.312C61.5838 145.946 61.9418 145.662 62.3906 145.46C62.8423 145.256 63.3466 145.153 63.9034 145.153C64.4659 145.153 64.9659 145.254 65.4034 145.456C65.8409 145.655 66.1875 145.928 66.4432 146.274C66.7017 146.621 66.8381 147.014 66.8523 147.455H65.8295ZM68.5558 154V153.233L71.4364 150.08C71.7745 149.71 72.0529 149.389 72.2717 149.116C72.4904 148.841 72.6523 148.582 72.7575 148.341C72.8654 148.097 72.9194 147.841 72.9194 147.574C72.9194 147.267 72.8455 147.001 72.6978 146.777C72.5529 146.553 72.354 146.379 72.1012 146.257C71.8484 146.135 71.5643 146.074 71.2489 146.074C70.9137 146.074 70.6211 146.143 70.3711 146.283C70.1239 146.419 69.9322 146.611 69.7958 146.858C69.6623 147.105 69.5955 147.395 69.5955 147.727H68.5898C68.5898 147.216 68.7077 146.767 68.9435 146.381C69.1793 145.994 69.5004 145.693 69.9066 145.477C70.3157 145.261 70.7745 145.153 71.283 145.153C71.7944 145.153 72.2475 145.261 72.6424 145.477C73.0373 145.693 73.3469 145.984 73.5714 146.351C73.7958 146.717 73.908 147.125 73.908 147.574C73.908 147.895 73.8498 148.209 73.7333 148.516C73.6197 148.82 73.4208 149.159 73.1367 149.534C72.8555 149.906 72.4648 150.361 71.9648 150.898L70.0046 152.994V153.062H74.0614V154H68.5558ZM78.668 154.119C78.0259 154.119 77.479 153.945 77.0273 153.595C76.5756 153.243 76.2305 152.733 75.9918 152.065C75.7532 151.395 75.6339 150.585 75.6339 149.636C75.6339 148.693 75.7532 147.888 75.9918 147.22C76.2333 146.55 76.5799 146.038 77.0316 145.686C77.4862 145.331 78.0316 145.153 78.668 145.153C79.3043 145.153 79.8484 145.331 80.3001 145.686C80.7546 146.038 81.1012 146.55 81.3398 147.22C81.5813 147.888 81.7021 148.693 81.7021 149.636C81.7021 150.585 81.5827 151.395 81.3441 152.065C81.1055 152.733 80.7603 153.243 80.3086 153.595C79.8569 153.945 79.31 154.119 78.668 154.119ZM78.668 153.182C79.3043 153.182 79.7987 152.875 80.1509 152.261C80.5032 151.648 80.6793 150.773 80.6793 149.636C80.6793 148.881 80.5984 148.237 80.4364 147.706C80.2773 147.175 80.0472 146.77 79.7461 146.491C79.4478 146.213 79.0884 146.074 78.668 146.074C78.0373 146.074 77.5444 146.385 77.1893 147.007C76.8342 147.626 76.6566 148.503 76.6566 149.636C76.6566 150.392 76.7362 151.034 76.8952 151.562C77.0543 152.091 77.283 152.493 77.5813 152.768C77.8825 153.044 78.2447 153.182 78.668 153.182ZM86.168 154.119C85.5259 154.119 84.979 153.945 84.5273 153.595C84.0756 153.243 83.7305 152.733 83.4918 152.065C83.2532 151.395 83.1339 150.585 83.1339 149.636C83.1339 148.693 83.2532 147.888 83.4918 147.22C83.7333 146.55 84.0799 146.038 84.5316 145.686C84.9862 145.331 85.5316 145.153 86.168 145.153C86.8043 145.153 87.3484 145.331 87.8001 145.686C88.2546 146.038 88.6012 146.55 88.8398 147.22C89.0813 147.888 89.2021 148.693 89.2021 149.636C89.2021 150.585 89.0827 151.395 88.8441 152.065C88.6055 152.733 88.2603 153.243 87.8086 153.595C87.3569 153.945 86.81 154.119 86.168 154.119ZM86.168 153.182C86.8043 153.182 87.2987 152.875 87.6509 152.261C88.0032 151.648 88.1793 150.773 88.1793 149.636C88.1793 148.881 88.0984 148.237 87.9364 147.706C87.7773 147.175 87.5472 146.77 87.2461 146.491C86.9478 146.213 86.5884 146.074 86.168 146.074C85.5373 146.074 85.0444 146.385 84.6893 147.007C84.3342 147.626 84.1566 148.503 84.1566 149.636C84.1566 150.392 84.2362 151.034 84.3952 151.562C84.5543 152.091 84.783 152.493 85.0813 152.768C85.3825 153.044 85.7447 153.182 86.168 153.182ZM91.7759 151.614L91.7589 150.369H91.9634L94.8271 147.455H96.0714L93.0202 150.54H92.935L91.7759 151.614ZM90.8384 154V145.273H91.8441V154H90.8384ZM94.9975 154L92.4407 150.761L93.1566 150.062L96.2759 154H94.9975Z" fill="#525256"/>
<path d="M63.4773 201.091V190.182H64.1761V201.091H63.4773ZM65.8295 193.455C65.7784 193.023 65.571 192.688 65.2074 192.449C64.8438 192.21 64.3977 192.091 63.8693 192.091C63.483 192.091 63.1449 192.153 62.8551 192.278C62.5682 192.403 62.3438 192.575 62.1818 192.794C62.0227 193.013 61.9432 193.261 61.9432 193.54C61.9432 193.773 61.9986 193.973 62.1094 194.141C62.223 194.305 62.3679 194.443 62.544 194.554C62.7202 194.662 62.9048 194.751 63.098 194.822C63.2912 194.891 63.4688 194.946 63.6307 194.989L64.517 195.227C64.7443 195.287 64.9972 195.369 65.2756 195.474C65.5568 195.58 65.8253 195.723 66.081 195.905C66.3395 196.084 66.5526 196.314 66.7202 196.595C66.8878 196.876 66.9716 197.222 66.9716 197.631C66.9716 198.102 66.848 198.528 66.6009 198.909C66.3565 199.29 65.9986 199.592 65.527 199.817C65.0582 200.041 64.4886 200.153 63.8182 200.153C63.1932 200.153 62.652 200.053 62.1946 199.851C61.7401 199.649 61.3821 199.368 61.1207 199.007C60.8622 198.646 60.7159 198.227 60.6818 197.75H61.7727C61.8011 198.08 61.9119 198.352 62.1051 198.568C62.3011 198.781 62.5483 198.94 62.8466 199.045C63.1477 199.148 63.4716 199.199 63.8182 199.199C64.2216 199.199 64.5838 199.134 64.9048 199.003C65.2259 198.869 65.4801 198.685 65.6676 198.449C65.8551 198.21 65.9489 197.932 65.9489 197.614C65.9489 197.324 65.8679 197.088 65.706 196.906C65.544 196.724 65.331 196.577 65.0668 196.463C64.8026 196.349 64.517 196.25 64.2102 196.165L63.1364 195.858C62.4545 195.662 61.9148 195.382 61.517 195.018C61.1193 194.655 60.9205 194.179 60.9205 193.591C60.9205 193.102 61.0526 192.676 61.3168 192.312C61.5838 191.946 61.9418 191.662 62.3906 191.46C62.8423 191.256 63.3466 191.153 63.9034 191.153C64.4659 191.153 64.9659 191.254 65.4034 191.456C65.8409 191.655 66.1875 191.928 66.4432 192.274C66.7017 192.621 66.8381 193.014 66.8523 193.455H65.8295ZM71.6239 191.273V200H70.5671V192.381H70.516L68.3853 193.795V192.722L70.5671 191.273H71.6239ZM76.9805 200.119C76.3384 200.119 75.7915 199.945 75.3398 199.595C74.8881 199.243 74.543 198.733 74.3043 198.065C74.0657 197.395 73.9464 196.585 73.9464 195.636C73.9464 194.693 74.0657 193.888 74.3043 193.22C74.5458 192.55 74.8924 192.038 75.3441 191.686C75.7987 191.331 76.3441 191.153 76.9805 191.153C77.6168 191.153 78.1609 191.331 78.6126 191.686C79.0671 192.038 79.4137 192.55 79.6523 193.22C79.8938 193.888 80.0146 194.693 80.0146 195.636C80.0146 196.585 79.8952 197.395 79.6566 198.065C79.418 198.733 79.0728 199.243 78.6211 199.595C78.1694 199.945 77.6225 200.119 76.9805 200.119ZM76.9805 199.182C77.6168 199.182 78.1112 198.875 78.4634 198.261C78.8157 197.648 78.9918 196.773 78.9918 195.636C78.9918 194.881 78.9109 194.237 78.7489 193.706C78.5898 193.175 78.3597 192.77 78.0586 192.491C77.7603 192.213 77.4009 192.074 76.9805 192.074C76.3498 192.074 75.8569 192.385 75.5018 193.007C75.1467 193.626 74.9691 194.503 74.9691 195.636C74.9691 196.392 75.0487 197.034 75.2077 197.562C75.3668 198.091 75.5955 198.493 75.8938 198.768C76.195 199.044 76.5572 199.182 76.9805 199.182ZM84.4805 200.119C83.8384 200.119 83.2915 199.945 82.8398 199.595C82.3881 199.243 82.043 198.733 81.8043 198.065C81.5657 197.395 81.4464 196.585 81.4464 195.636C81.4464 194.693 81.5657 193.888 81.8043 193.22C82.0458 192.55 82.3924 192.038 82.8441 191.686C83.2987 191.331 83.8441 191.153 84.4805 191.153C85.1168 191.153 85.6609 191.331 86.1126 191.686C86.5671 192.038 86.9137 192.55 87.1523 193.22C87.3938 193.888 87.5146 194.693 87.5146 195.636C87.5146 196.585 87.3952 197.395 87.1566 198.065C86.918 198.733 86.5728 199.243 86.1211 199.595C85.6694 199.945 85.1225 200.119 84.4805 200.119ZM84.4805 199.182C85.1168 199.182 85.6112 198.875 85.9634 198.261C86.3157 197.648 86.4918 196.773 86.4918 195.636C86.4918 194.881 86.4109 194.237 86.2489 193.706C86.0898 193.175 85.8597 192.77 85.5586 192.491C85.2603 192.213 84.9009 192.074 84.4805 192.074C83.8498 192.074 83.3569 192.385 83.0018 193.007C82.6467 193.626 82.4691 194.503 82.4691 195.636C82.4691 196.392 82.5487 197.034 82.7077 197.562C82.8668 198.091 83.0955 198.493 83.3938 198.768C83.695 199.044 84.0572 199.182 84.4805 199.182ZM90.0884 197.614L90.0714 196.369H90.2759L93.1396 193.455H94.3839L91.3327 196.54H91.2475L90.0884 197.614ZM89.1509 200V191.273H90.1566V200H89.1509ZM93.31 200L90.7532 196.761L91.4691 196.062L94.5884 200H93.31Z" fill="#525256"/>
<path d="M63.4773 247.091V236.182H64.1761V247.091H63.4773ZM65.8295 239.455C65.7784 239.023 65.571 238.688 65.2074 238.449C64.8438 238.21 64.3977 238.091 63.8693 238.091C63.483 238.091 63.1449 238.153 62.8551 238.278C62.5682 238.403 62.3438 238.575 62.1818 238.794C62.0227 239.013 61.9432 239.261 61.9432 239.54C61.9432 239.773 61.9986 239.973 62.1094 240.141C62.223 240.305 62.3679 240.443 62.544 240.554C62.7202 240.662 62.9048 240.751 63.098 240.822C63.2912 240.891 63.4688 240.946 63.6307 240.989L64.517 241.227C64.7443 241.287 64.9972 241.369 65.2756 241.474C65.5568 241.58 65.8253 241.723 66.081 241.905C66.3395 242.084 66.5526 242.314 66.7202 242.595C66.8878 242.876 66.9716 243.222 66.9716 243.631C66.9716 244.102 66.848 244.528 66.6009 244.909C66.3565 245.29 65.9986 245.592 65.527 245.817C65.0582 246.041 64.4886 246.153 63.8182 246.153C63.1932 246.153 62.652 246.053 62.1946 245.851C61.7401 245.649 61.3821 245.368 61.1207 245.007C60.8622 244.646 60.7159 244.227 60.6818 243.75H61.7727C61.8011 244.08 61.9119 244.352 62.1051 244.568C62.3011 244.781 62.5483 244.94 62.8466 245.045C63.1477 245.148 63.4716 245.199 63.8182 245.199C64.2216 245.199 64.5838 245.134 64.9048 245.003C65.2259 244.869 65.4801 244.685 65.6676 244.449C65.8551 244.21 65.9489 243.932 65.9489 243.614C65.9489 243.324 65.8679 243.088 65.706 242.906C65.544 242.724 65.331 242.577 65.0668 242.463C64.8026 242.349 64.517 242.25 64.2102 242.165L63.1364 241.858C62.4545 241.662 61.9148 241.382 61.517 241.018C61.1193 240.655 60.9205 240.179 60.9205 239.591C60.9205 239.102 61.0526 238.676 61.3168 238.312C61.5838 237.946 61.9418 237.662 62.3906 237.46C62.8423 237.256 63.3466 237.153 63.9034 237.153C64.4659 237.153 64.9659 237.254 65.4034 237.456C65.8409 237.655 66.1875 237.928 66.4432 238.274C66.7017 238.621 66.8381 239.014 66.8523 239.455H65.8295ZM71.4023 246.119C70.7603 246.119 70.2134 245.945 69.7617 245.595C69.31 245.243 68.9648 244.733 68.7262 244.065C68.4876 243.395 68.3683 242.585 68.3683 241.636C68.3683 240.693 68.4876 239.888 68.7262 239.22C68.9677 238.55 69.3143 238.038 69.766 237.686C70.2205 237.331 70.766 237.153 71.4023 237.153C72.0387 237.153 72.5827 237.331 73.0344 237.686C73.489 238.038 73.8356 238.55 74.0742 239.22C74.3157 239.888 74.4364 240.693 74.4364 241.636C74.4364 242.585 74.3171 243.395 74.0785 244.065C73.8398 244.733 73.4947 245.243 73.043 245.595C72.5913 245.945 72.0444 246.119 71.4023 246.119ZM71.4023 245.182C72.0387 245.182 72.533 244.875 72.8853 244.261C73.2376 243.648 73.4137 242.773 73.4137 241.636C73.4137 240.881 73.3327 240.237 73.1708 239.706C73.0117 239.175 72.7816 238.77 72.4805 238.491C72.1822 238.213 71.8228 238.074 71.4023 238.074C70.7717 238.074 70.2788 238.385 69.9237 239.007C69.5685 239.626 69.391 240.503 69.391 241.636C69.391 242.392 69.4705 243.034 69.6296 243.562C69.7887 244.091 70.0174 244.493 70.3157 244.768C70.6168 245.044 70.979 245.182 71.4023 245.182ZM76.5011 246.068C76.2908 246.068 76.1104 245.993 75.9599 245.842C75.8093 245.692 75.734 245.511 75.734 245.301C75.734 245.091 75.8093 244.911 75.9599 244.76C76.1104 244.609 76.2908 244.534 76.5011 244.534C76.7113 244.534 76.8917 244.609 77.0423 244.76C77.1928 244.911 77.2681 245.091 77.2681 245.301C77.2681 245.44 77.2326 245.568 77.1616 245.685C77.0934 245.801 77.0011 245.895 76.8846 245.966C76.771 246.034 76.6431 246.068 76.5011 246.068ZM81.5977 246.119C80.9556 246.119 80.4087 245.945 79.957 245.595C79.5053 245.243 79.1602 244.733 78.9215 244.065C78.6829 243.395 78.5636 242.585 78.5636 241.636C78.5636 240.693 78.6829 239.888 78.9215 239.22C79.163 238.55 79.5096 238.038 79.9613 237.686C80.4158 237.331 80.9613 237.153 81.5977 237.153C82.234 237.153 82.7781 237.331 83.2298 237.686C83.6843 238.038 84.0309 238.55 84.2695 239.22C84.511 239.888 84.6317 240.693 84.6317 241.636C84.6317 242.585 84.5124 243.395 84.2738 244.065C84.0352 244.733 83.69 245.243 83.2383 245.595C82.7866 245.945 82.2397 246.119 81.5977 246.119ZM81.5977 245.182C82.234 245.182 82.7283 244.875 83.0806 244.261C83.4329 243.648 83.609 242.773 83.609 241.636C83.609 240.881 83.5281 240.237 83.3661 239.706C83.207 239.175 82.9769 238.77 82.6758 238.491C82.3775 238.213 82.0181 238.074 81.5977 238.074C80.967 238.074 80.4741 238.385 80.119 239.007C79.7638 239.626 79.5863 240.503 79.5863 241.636C79.5863 242.392 79.6658 243.034 79.8249 243.562C79.984 244.091 80.2127 244.493 80.511 244.768C80.8121 245.044 81.1744 245.182 81.5977 245.182ZM89.0977 246.119C88.4556 246.119 87.9087 245.945 87.457 245.595C87.0053 245.243 86.6602 244.733 86.4215 244.065C86.1829 243.395 86.0636 242.585 86.0636 241.636C86.0636 240.693 86.1829 239.888 86.4215 239.22C86.663 238.55 87.0096 238.038 87.4613 237.686C87.9158 237.331 88.4613 237.153 89.0977 237.153C89.734 237.153 90.2781 237.331 90.7298 237.686C91.1843 238.038 91.5309 238.55 91.7695 239.22C92.011 239.888 92.1317 240.693 92.1317 241.636C92.1317 242.585 92.0124 243.395 91.7738 244.065C91.5352 244.733 91.19 245.243 90.7383 245.595C90.2866 245.945 89.7397 246.119 89.0977 246.119ZM89.0977 245.182C89.734 245.182 90.2283 244.875 90.5806 244.261C90.9329 243.648 91.109 242.773 91.109 241.636C91.109 240.881 91.0281 240.237 90.8661 239.706C90.707 239.175 90.4769 238.77 90.1758 238.491C89.8775 238.213 89.5181 238.074 89.0977 238.074C88.467 238.074 87.9741 238.385 87.619 239.007C87.2638 239.626 87.0863 240.503 87.0863 241.636C87.0863 242.392 87.1658 243.034 87.3249 243.562C87.484 244.091 87.7127 244.493 88.011 244.768C88.3121 245.044 88.6744 245.182 89.0977 245.182Z" fill="#525256"/>
<path d="M137.754 136.54L132 124V246H788V130.296L782.246 136.391C776.491 142.487 764.982 154.678 753.474 156.856C741.965 159.035 730.456 151.202 718.947 147.523C707.439 143.843 695.93 144.318 684.421 141.131C672.912 137.944 661.404 131.096 649.895 128.563C638.386 126.03 626.877 127.813 615.368 135.426C603.86 143.039 592.351 156.483 580.842 153.444C569.333 150.405 557.825 130.884 546.316 127.801C534.807 124.718 523.298 138.072 511.789 139.6C500.281 141.127 488.772 130.827 477.263 134.272C465.754 137.718 454.246 154.908 442.737 166.029C431.228 177.149 419.719 182.201 408.211 182.775C396.702 183.348 385.193 179.445 373.684 173.299C362.175 167.154 350.667 158.765 339.158 161.735C327.649 164.704 316.14 179.031 304.632 176.718C293.123 174.405 281.614 155.453 270.105 142.194C258.596 128.936 247.088 121.37 235.579 125.773C224.07 130.175 212.561 146.546 201.053 160.785C189.544 175.023 178.035 187.13 166.526 180.644C155.018 174.158 143.509 149.079 137.754 136.54Z" fill="url(#paint0_linear_639_3414)" fill-opacity="0.5"/>
<path opacity="0.5" d="M132 191.1C132 191.1 151.952 174.014 166.463 172.459C180.973 170.904 180.973 177.106 196.693 177.106C212.413 177.106 205.158 156.374 229.947 156.374C254.735 156.374 268.037 176.588 284.361 177.106C300.686 177.624 317.01 138.233 341.799 139.27C366.588 140.307 350.693 158.273 388.354 156.374C419.128 154.822 405.888 171.923 439.141 171.923C465.333 171.923 472.076 181.702 493.556 185.917C522.526 191.603 539.831 176.792 562.481 171.923C603.776 163.046 592.305 178.723 627.174 173.996C658.093 169.805 641.08 154.301 690.658 154.301C723.161 154.301 730.802 178.09 763.211 177.106C777.29 176.679 788 182.319 788 182.319" stroke="#656575" stroke-width="1.5" stroke-linecap="round" stroke-dasharray="4 4"/>
<path d="M132 124L137.754 136.596C143.509 149.191 155.018 174.383 166.526 180.898C178.035 187.413 189.544 175.252 201.053 160.949C212.561 146.647 224.07 130.203 235.579 125.781C247.088 121.359 258.596 128.958 270.105 142.276C281.614 155.594 293.123 174.631 304.632 176.954C316.14 179.277 327.649 164.886 339.158 161.904C350.667 158.921 362.175 167.347 373.684 173.52C385.193 179.694 396.702 183.614 408.211 183.038C419.719 182.461 431.228 177.387 442.737 166.217C454.246 155.046 465.754 137.779 477.263 134.318C488.772 130.858 500.281 141.204 511.789 139.669C523.298 138.135 534.807 124.721 546.316 127.818C557.825 130.915 569.333 150.523 580.842 153.576C592.351 156.628 603.86 143.125 615.368 135.477C626.877 127.83 638.386 126.039 649.895 128.583C661.403 131.127 672.912 138.006 684.421 141.208C695.93 144.409 707.439 143.932 718.947 147.628C730.456 151.324 741.965 159.192 753.474 157.004C764.982 154.815 776.491 142.57 782.246 136.447L788 130.324" stroke="#006AFF" stroke-opacity="0.8" stroke-width="1.5" stroke-linecap="round"/>
<rect opacity="0.15" x="169.5" y="96" width="1" height="150" rx="0.5" fill="#656575"/>
<path d="M157.301 264.818H158.773L162.233 273.27H162.352L165.813 264.818H167.284V275H166.131V267.264H166.031L162.85 275H161.736L158.554 267.264H158.455V275H157.301V264.818ZM171.844 275.179C171.361 275.179 170.921 275.088 170.527 274.906C170.133 274.72 169.819 274.453 169.587 274.105C169.355 273.754 169.239 273.33 169.239 272.832C169.239 272.395 169.326 272.04 169.498 271.768C169.67 271.493 169.901 271.278 170.189 271.122C170.477 270.966 170.795 270.85 171.143 270.774C171.495 270.695 171.848 270.632 172.202 270.585C172.666 270.526 173.043 270.481 173.331 270.451C173.623 270.418 173.835 270.363 173.967 270.287C174.103 270.211 174.171 270.078 174.171 269.889V269.849C174.171 269.359 174.037 268.978 173.768 268.706C173.503 268.434 173.101 268.298 172.56 268.298C172 268.298 171.561 268.421 171.243 268.666C170.925 268.911 170.701 269.173 170.572 269.452L169.458 269.054C169.657 268.59 169.922 268.229 170.254 267.97C170.588 267.708 170.953 267.526 171.347 267.423C171.745 267.317 172.136 267.264 172.521 267.264C172.766 267.264 173.048 267.294 173.366 267.354C173.687 267.41 173.997 267.528 174.295 267.707C174.597 267.886 174.847 268.156 175.046 268.517C175.245 268.878 175.344 269.362 175.344 269.969V275H174.171V273.966H174.112C174.032 274.132 173.899 274.309 173.714 274.498C173.528 274.687 173.281 274.848 172.973 274.98C172.665 275.113 172.289 275.179 171.844 275.179ZM172.023 274.125C172.487 274.125 172.879 274.034 173.197 273.852C173.518 273.669 173.76 273.434 173.923 273.146C174.088 272.857 174.171 272.554 174.171 272.236V271.162C174.121 271.222 174.012 271.276 173.843 271.326C173.677 271.372 173.485 271.414 173.266 271.45C173.051 271.483 172.84 271.513 172.635 271.54C172.433 271.563 172.269 271.583 172.143 271.599C171.838 271.639 171.553 271.704 171.288 271.793C171.026 271.879 170.814 272.01 170.651 272.186C170.492 272.358 170.413 272.594 170.413 272.892C170.413 273.3 170.563 273.608 170.865 273.817C171.17 274.022 171.556 274.125 172.023 274.125ZM177.968 277.864C177.769 277.864 177.592 277.847 177.436 277.814C177.28 277.784 177.173 277.754 177.113 277.724L177.411 276.69C177.696 276.763 177.948 276.79 178.167 276.77C178.386 276.75 178.58 276.652 178.749 276.477C178.921 276.304 179.079 276.024 179.221 275.636L179.44 275.04L176.616 267.364H177.889L179.997 273.449H180.076L182.184 267.364H183.457L180.215 276.114C180.07 276.508 179.889 276.835 179.673 277.093C179.458 277.355 179.208 277.549 178.923 277.675C178.641 277.801 178.323 277.864 177.968 277.864Z" fill="#525256"/>
<rect opacity="0.15" x="285.5" y="96" width="1" height="150" rx="0.5" fill="#656575"/>
<path d="M279.168 264.818H280.401V272.097C280.401 272.746 280.281 273.298 280.043 273.752C279.804 274.206 279.468 274.551 279.034 274.786C278.599 275.022 278.087 275.139 277.497 275.139C276.941 275.139 276.445 275.038 276.011 274.836C275.577 274.63 275.235 274.339 274.987 273.961C274.738 273.583 274.614 273.134 274.614 272.614H275.827C275.827 272.902 275.898 273.154 276.041 273.369C276.186 273.581 276.385 273.747 276.637 273.866C276.889 273.986 277.176 274.045 277.497 274.045C277.852 274.045 278.154 273.971 278.402 273.822C278.651 273.673 278.84 273.454 278.969 273.165C279.102 272.874 279.168 272.518 279.168 272.097V264.818ZM287.525 271.878V267.364H288.698V275H287.525V273.707H287.445C287.267 274.095 286.988 274.425 286.61 274.697C286.232 274.965 285.755 275.099 285.178 275.099C284.701 275.099 284.277 274.995 283.906 274.786C283.535 274.574 283.243 274.256 283.031 273.832C282.819 273.404 282.713 272.866 282.713 272.216V267.364H283.886V272.136C283.886 272.693 284.042 273.137 284.353 273.469C284.668 273.8 285.069 273.966 285.556 273.966C285.848 273.966 286.145 273.891 286.446 273.742C286.751 273.593 287.006 273.364 287.212 273.056C287.421 272.748 287.525 272.355 287.525 271.878ZM292.021 270.406V275H290.847V267.364H291.981V268.557H292.08C292.259 268.169 292.531 267.857 292.896 267.622C293.26 267.384 293.731 267.264 294.308 267.264C294.825 267.264 295.277 267.37 295.665 267.582C296.053 267.791 296.354 268.109 296.57 268.537C296.785 268.961 296.893 269.498 296.893 270.148V275H295.719V270.227C295.719 269.627 295.564 269.16 295.252 268.825C294.941 268.487 294.513 268.318 293.969 268.318C293.595 268.318 293.26 268.399 292.965 268.562C292.674 268.724 292.443 268.961 292.274 269.273C292.105 269.584 292.021 269.962 292.021 270.406Z" fill="#525256"/>
<rect opacity="0.15" x="401.5" y="96" width="1" height="150" rx="0.5" fill="#656575"/>
<path d="M397.601 264.818H398.834V272.097C398.834 272.746 398.715 273.298 398.476 273.752C398.238 274.206 397.901 274.551 397.467 274.786C397.033 275.022 396.521 275.139 395.931 275.139C395.374 275.139 394.879 275.038 394.444 274.836C394.01 274.63 393.669 274.339 393.42 273.961C393.172 273.583 393.047 273.134 393.047 272.614H394.26C394.26 272.902 394.332 273.154 394.474 273.369C394.62 273.581 394.819 273.747 395.071 273.866C395.323 273.986 395.609 274.045 395.931 274.045C396.286 274.045 396.587 273.971 396.836 273.822C397.084 273.673 397.273 273.454 397.403 273.165C397.535 272.874 397.601 272.518 397.601 272.097V264.818ZM405.959 271.878V267.364H407.132V275H405.959V273.707H405.879C405.7 274.095 405.422 274.425 405.044 274.697C404.666 274.965 404.189 275.099 403.612 275.099C403.135 275.099 402.711 274.995 402.339 274.786C401.968 274.574 401.676 274.256 401.464 273.832C401.252 273.404 401.146 272.866 401.146 272.216V267.364H402.319V272.136C402.319 272.693 402.475 273.137 402.787 273.469C403.102 273.8 403.503 273.966 403.99 273.966C404.282 273.966 404.578 273.891 404.88 273.742C405.185 273.593 405.44 273.364 405.645 273.056C405.854 272.748 405.959 272.355 405.959 271.878ZM410.454 264.818V275H409.281V264.818H410.454Z" fill="#525256"/>
<rect opacity="0.15" x="517.5" y="96" width="1" height="150" rx="0.5" fill="#656575"/>
<path d="M506.587 275H505.294L509.033 264.818H510.306L514.044 275H512.752L509.709 266.429H509.63L506.587 275ZM507.064 271.023H512.275V272.116H507.064V271.023ZM520.284 271.878V267.364H521.457V275H520.284V273.707H520.204C520.025 274.095 519.747 274.425 519.369 274.697C518.991 274.965 518.514 275.099 517.937 275.099C517.46 275.099 517.036 274.995 516.665 274.786C516.293 274.574 516.002 274.256 515.79 273.832C515.577 273.404 515.471 272.866 515.471 272.216V267.364H516.645V272.136C516.645 272.693 516.8 273.137 517.112 273.469C517.427 273.8 517.828 273.966 518.315 273.966C518.607 273.966 518.903 273.891 519.205 273.742C519.51 273.593 519.765 273.364 519.971 273.056C520.179 272.748 520.284 272.355 520.284 271.878ZM526.688 278.023C526.122 278.023 525.634 277.95 525.227 277.804C524.819 277.661 524.479 277.473 524.208 277.237C523.939 277.005 523.725 276.757 523.566 276.491L524.501 275.835C524.607 275.974 524.741 276.134 524.904 276.312C525.066 276.495 525.288 276.652 525.57 276.785C525.855 276.921 526.228 276.989 526.688 276.989C527.305 276.989 527.814 276.839 528.215 276.541C528.616 276.243 528.816 275.776 528.816 275.139V273.588H528.717C528.631 273.727 528.508 273.9 528.349 274.105C528.193 274.307 527.968 274.488 527.673 274.647C527.381 274.803 526.987 274.881 526.49 274.881C525.873 274.881 525.32 274.735 524.829 274.443C524.342 274.152 523.956 273.727 523.671 273.17C523.389 272.614 523.248 271.937 523.248 271.142C523.248 270.36 523.386 269.679 523.661 269.099C523.936 268.515 524.319 268.065 524.809 267.746C525.3 267.425 525.867 267.264 526.509 267.264C527.007 267.264 527.401 267.347 527.693 267.513C527.988 267.675 528.213 267.861 528.369 268.07C528.528 268.275 528.651 268.444 528.737 268.577H528.856V267.364H529.99V275.219C529.99 275.875 529.84 276.409 529.542 276.82C529.247 277.234 528.849 277.537 528.349 277.729C527.852 277.925 527.298 278.023 526.688 278.023ZM526.649 273.827C527.119 273.827 527.517 273.719 527.842 273.504C528.167 273.288 528.414 272.978 528.583 272.574C528.752 272.17 528.836 271.686 528.836 271.122C528.836 270.572 528.753 270.086 528.588 269.665C528.422 269.245 528.177 268.915 527.852 268.676C527.527 268.437 527.126 268.318 526.649 268.318C526.152 268.318 525.737 268.444 525.406 268.696C525.078 268.948 524.831 269.286 524.665 269.71C524.503 270.134 524.421 270.605 524.421 271.122C524.421 271.652 524.504 272.121 524.67 272.529C524.839 272.933 525.088 273.252 525.416 273.484C525.747 273.712 526.158 273.827 526.649 273.827Z" fill="#525256"/>
<rect opacity="0.15" x="633.5" y="96" width="1" height="150" rx="0.5" fill="#656575"/>
<path d="M627.997 267.364C627.938 266.86 627.696 266.469 627.272 266.19C626.847 265.912 626.327 265.773 625.71 265.773C625.26 265.773 624.865 265.846 624.527 265.991C624.193 266.137 623.931 266.338 623.742 266.593C623.556 266.848 623.463 267.138 623.463 267.463C623.463 267.735 623.528 267.969 623.657 268.164C623.79 268.356 623.959 268.517 624.164 268.646C624.37 268.772 624.585 268.877 624.811 268.96C625.036 269.039 625.243 269.104 625.432 269.153L626.466 269.432C626.731 269.501 627.026 269.598 627.351 269.72C627.679 269.843 627.992 270.01 628.291 270.222C628.592 270.431 628.841 270.7 629.036 271.028C629.232 271.356 629.33 271.759 629.33 272.236C629.33 272.786 629.186 273.283 628.897 273.727C628.612 274.171 628.195 274.524 627.644 274.786C627.098 275.048 626.433 275.179 625.651 275.179C624.922 275.179 624.29 275.061 623.757 274.826C623.226 274.591 622.809 274.263 622.504 273.842C622.202 273.421 622.032 272.932 621.992 272.375H623.264C623.298 272.759 623.427 273.078 623.652 273.33C623.881 273.578 624.169 273.764 624.517 273.886C624.869 274.006 625.246 274.065 625.651 274.065C626.121 274.065 626.544 273.989 626.919 273.837C627.293 273.681 627.59 273.465 627.809 273.19C628.027 272.912 628.137 272.587 628.137 272.216C628.137 271.878 628.042 271.603 627.853 271.391C627.664 271.179 627.416 271.006 627.108 270.874C626.799 270.741 626.466 270.625 626.108 270.526L624.855 270.168C624.06 269.939 623.43 269.612 622.966 269.188C622.502 268.764 622.27 268.209 622.27 267.523C622.27 266.953 622.424 266.455 622.733 266.031C623.044 265.604 623.462 265.272 623.985 265.037C624.512 264.798 625.101 264.679 625.75 264.679C626.407 264.679 626.99 264.797 627.5 265.032C628.011 265.264 628.415 265.582 628.713 265.987C629.015 266.391 629.174 266.85 629.191 267.364H627.997ZM634.4 275.159C633.664 275.159 633.029 274.997 632.495 274.672C631.965 274.344 631.556 273.886 631.267 273.3C630.982 272.71 630.84 272.024 630.84 271.241C630.84 270.459 630.982 269.77 631.267 269.173C631.556 268.573 631.957 268.106 632.471 267.771C632.988 267.433 633.591 267.264 634.28 267.264C634.678 267.264 635.071 267.33 635.459 267.463C635.846 267.596 636.199 267.811 636.517 268.109C636.836 268.404 637.089 268.795 637.278 269.283C637.467 269.77 637.562 270.37 637.562 271.082V271.58H631.675V270.565H636.368C636.368 270.134 636.282 269.75 636.11 269.412C635.941 269.074 635.699 268.807 635.384 268.612C635.072 268.416 634.705 268.318 634.28 268.318C633.813 268.318 633.409 268.434 633.067 268.666C632.729 268.895 632.469 269.193 632.287 269.561C632.104 269.929 632.013 270.323 632.013 270.744V271.42C632.013 271.997 632.113 272.486 632.312 272.887C632.514 273.285 632.794 273.588 633.152 273.797C633.51 274.002 633.926 274.105 634.4 274.105C634.708 274.105 634.986 274.062 635.235 273.976C635.487 273.886 635.704 273.754 635.886 273.578C636.068 273.399 636.209 273.177 636.309 272.912L637.442 273.23C637.323 273.615 637.122 273.953 636.841 274.244C636.559 274.533 636.211 274.758 635.797 274.92C635.382 275.08 634.917 275.159 634.4 275.159ZM639.346 277.864V267.364H640.48V268.577H640.619C640.705 268.444 640.825 268.275 640.977 268.07C641.133 267.861 641.355 267.675 641.643 267.513C641.935 267.347 642.329 267.264 642.826 267.264C643.469 267.264 644.036 267.425 644.527 267.746C645.017 268.068 645.4 268.524 645.675 269.114C645.95 269.704 646.088 270.4 646.088 271.202C646.088 272.01 645.95 272.711 645.675 273.305C645.4 273.895 645.019 274.352 644.532 274.677C644.044 274.998 643.483 275.159 642.846 275.159C642.356 275.159 641.963 275.078 641.668 274.915C641.373 274.75 641.146 274.562 640.987 274.354C640.828 274.142 640.705 273.966 640.619 273.827H640.52V277.864H639.346ZM640.5 271.182C640.5 271.759 640.584 272.267 640.753 272.708C640.922 273.146 641.169 273.489 641.494 273.737C641.819 273.982 642.217 274.105 642.687 274.105C643.178 274.105 643.587 273.976 643.915 273.717C644.247 273.455 644.495 273.104 644.661 272.663C644.83 272.219 644.915 271.725 644.915 271.182C644.915 270.645 644.832 270.161 644.666 269.73C644.504 269.296 644.257 268.953 643.925 268.701C643.597 268.446 643.184 268.318 642.687 268.318C642.21 268.318 641.809 268.439 641.484 268.681C641.159 268.92 640.914 269.254 640.748 269.685C640.583 270.113 640.5 270.612 640.5 271.182Z" fill="#525256"/>
<rect opacity="0.15" x="749.5" y="96" width="1" height="150" rx="0.5" fill="#656575"/>
<path d="M748.039 269.909C748.039 270.983 747.845 271.911 747.457 272.693C747.069 273.475 746.537 274.079 745.861 274.503C745.185 274.927 744.413 275.139 743.544 275.139C742.676 275.139 741.904 274.927 741.228 274.503C740.551 274.079 740.02 273.475 739.632 272.693C739.244 271.911 739.05 270.983 739.05 269.909C739.05 268.835 739.244 267.907 739.632 267.125C740.02 266.343 740.551 265.74 741.228 265.315C741.904 264.891 742.676 264.679 743.544 264.679C744.413 264.679 745.185 264.891 745.861 265.315C746.537 265.74 747.069 266.343 747.457 267.125C747.845 267.907 748.039 268.835 748.039 269.909ZM746.846 269.909C746.846 269.027 746.698 268.283 746.403 267.677C746.111 267.07 745.715 266.611 745.215 266.3C744.718 265.988 744.161 265.832 743.544 265.832C742.928 265.832 742.369 265.988 741.869 266.3C741.372 266.611 740.976 267.07 740.681 267.677C740.389 268.283 740.243 269.027 740.243 269.909C740.243 270.791 740.389 271.535 740.681 272.141C740.976 272.748 741.372 273.207 741.869 273.518C742.369 273.83 742.928 273.986 743.544 273.986C744.161 273.986 744.718 273.83 745.215 273.518C745.715 273.207 746.111 272.748 746.403 272.141C746.698 271.535 746.846 270.791 746.846 269.909ZM753.055 275.159C752.339 275.159 751.723 274.99 751.206 274.652C750.689 274.314 750.291 273.848 750.012 273.255C749.734 272.662 749.595 271.984 749.595 271.222C749.595 270.446 749.737 269.762 750.022 269.168C750.311 268.572 750.712 268.106 751.225 267.771C751.743 267.433 752.346 267.264 753.035 267.264C753.572 267.264 754.056 267.364 754.487 267.562C754.918 267.761 755.271 268.04 755.546 268.398C755.821 268.756 755.992 269.173 756.058 269.651H754.885C754.795 269.303 754.596 268.994 754.288 268.726C753.983 268.454 753.572 268.318 753.055 268.318C752.598 268.318 752.197 268.437 751.852 268.676C751.511 268.911 751.244 269.245 751.051 269.675C750.863 270.103 750.768 270.605 750.768 271.182C750.768 271.772 750.861 272.286 751.047 272.723C751.235 273.161 751.501 273.5 751.842 273.742C752.187 273.984 752.591 274.105 753.055 274.105C753.36 274.105 753.637 274.052 753.885 273.946C754.134 273.84 754.344 273.688 754.517 273.489C754.689 273.29 754.812 273.051 754.885 272.773H756.058C755.992 273.223 755.828 273.629 755.566 273.991C755.307 274.349 754.964 274.634 754.537 274.846C754.112 275.055 753.618 275.159 753.055 275.159ZM761.094 267.364V268.358H757.137V267.364H761.094ZM758.29 265.534H759.463V272.812C759.463 273.144 759.511 273.393 759.608 273.558C759.707 273.721 759.833 273.83 759.985 273.886C760.141 273.939 760.305 273.966 760.478 273.966C760.607 273.966 760.713 273.959 760.796 273.946C760.879 273.929 760.945 273.916 760.995 273.906L761.233 274.96C761.154 274.99 761.043 275.02 760.9 275.05C760.758 275.083 760.577 275.099 760.358 275.099C760.027 275.099 759.702 275.028 759.384 274.886C759.069 274.743 758.807 274.526 758.598 274.234C758.393 273.943 758.29 273.575 758.29 273.131V265.534Z" fill="#525256"/>
</g>
<defs>
<filter id="filter0_d_639_3414" x="0" y="0" width="852" height="334" filterUnits="userSpaceOnUse" color-interpolation-filters="sRGB">
<feFlood flood-opacity="0" result="BackgroundImageFix"/>
<feColorMatrix in="SourceAlpha" type="matrix" values="0 0 0 0 0 0 0 0 0 0 0 0 0 0 0 0 0 0 127 0" result="hardAlpha"/>
<feOffset dy="8"/>
<feGaussianBlur stdDeviation="12"/>
<feComposite in2="hardAlpha" operator="out"/>
<feColorMatrix type="matrix" values="0 0 0 0 0.271354 0 0 0 0 0.271354 0 0 0 0 0.3125 0 0 0 0.1 0"/>
<feBlend mode="normal" in2="BackgroundImageFix" result="effect1_dropShadow_639_3414"/>
<feBlend mode="normal" in="SourceGraphic" in2="effect1_dropShadow_639_3414" result="shape"/>
</filter>
<linearGradient id="paint0_linear_639_3414" x1="460" y1="95.5333" x2="460" y2="257.183" gradientUnits="userSpaceOnUse">
<stop stop-color="#006AFF"/>
<stop offset="1" stop-color="#D9D9D9" stop-opacity="0"/>
</linearGradient>
</defs>
</svg>
